<svg width="174" height="43" viewBox="0 0 174 43" fill="none" xmlns="http://www.w3.org/2000/svg">
<path d="M24.592 37.7658C24.4517 37.8391 24.4517 37.9124 24.4517 37.9857C24.5218 38.1323 24.592 38.2788 24.592 38.4254C24.7324 38.7186 24.5218 38.8652 24.3113 38.7919C24.171 38.7919 24.0306 38.7919 23.8903 38.7919C23.6096 38.7186 23.3289 38.6453 23.0482 38.7186C22.9078 38.7186 22.7675 38.572 22.6271 38.4254C22.4868 38.2788 22.3464 38.1323 22.2763 37.9124C22.2763 37.6925 22.1359 37.5459 22.0657 37.326C22.0657 37.0328 21.9254 36.813 21.8552 36.5198C21.8552 36.4465 21.8552 36.4465 21.8552 36.3732C21.8552 36.2999 21.8552 36.1533 21.8552 36.08C21.8552 36.0067 21.8552 35.9334 21.8552 35.7869C21.7851 35.7136 21.7851 35.567 21.7149 35.4937C21.5745 35.2738 21.6447 34.9806 21.5044 34.7607C21.4342 34.6142 21.364 34.3943 21.364 34.1744C21.364 34.0278 21.364 33.9545 21.2938 33.8079C21.2938 33.6613 21.2237 33.5147 21.1535 33.3682C21.0131 32.9284 21.0131 32.4886 20.8026 32.0489C20.6623 31.6824 20.5921 31.2426 20.4518 30.8029C20.3114 30.4364 20.2412 30.0699 20.1711 29.7035C20.0307 29.337 19.9605 29.0438 19.8904 28.6774C19.8904 28.6774 19.8904 28.6774 19.8904 28.6041C19.6798 28.3842 19.6798 28.0177 19.5395 27.7978C19.3991 27.578 19.329 27.2848 19.2588 26.9916C19.2588 26.845 19.2588 26.6984 19.1185 26.5518C18.9781 26.332 18.9079 26.1854 18.9079 25.8922C18.9079 25.7456 18.8378 25.6723 18.7676 25.5257C18.6974 25.4524 18.6974 25.3058 18.6974 25.2326C18.6974 25.086 18.6974 25.0127 18.5571 24.9394C18.4167 24.7195 18.3465 24.4996 18.2062 24.2797C18.2062 23.9866 17.9255 23.7667 17.9255 23.4735C17.6448 23.1803 17.5746 22.8871 17.5045 22.5207C17.5045 22.4474 17.4343 22.3741 17.3641 22.3008C17.1536 22.2275 17.0132 22.0809 16.9431 21.861C16.8729 21.6412 16.6624 21.4946 16.522 21.4213C16.3115 21.2747 16.1712 21.0548 16.101 20.8349C16.0308 20.7616 15.9606 20.6883 15.8203 20.615C15.5396 20.5417 15.2589 20.3952 14.9782 20.3219C14.8379 20.2486 14.6975 20.2486 14.5572 20.2486C14.3466 20.3219 14.1361 20.3219 13.9256 20.3952C13.5747 20.5417 13.1537 20.7616 12.8028 21.0548C12.5923 21.2014 12.3818 21.348 12.1712 21.4213C12.1011 21.4213 12.0309 21.4946 11.9607 21.5679C11.8906 21.7144 11.68 21.7144 11.5397 21.861C11.1186 22.3741 10.5573 22.8139 10.066 23.3269C10.066 23.3269 10.066 23.3269 9.99586 23.4002C9.85552 23.6934 9.57482 23.9133 9.3643 24.2064C9.15378 24.4263 9.01343 24.6462 8.80291 24.7928C8.66256 24.8661 8.52221 25.086 8.45204 25.2326C8.38187 25.599 8.10117 25.8922 7.82048 26.1854C7.7503 26.2587 7.60996 26.4052 7.68013 26.5518C7.68013 26.6251 7.60995 26.6984 7.60995 26.7717C7.39943 26.9916 7.32926 27.2848 7.11874 27.5047C6.97839 27.7245 6.83804 27.9444 6.83804 28.1643C6.62752 28.4575 6.55735 28.7506 6.417 29.0438C6.20648 29.337 6.13631 29.7035 5.99596 29.9966C5.85561 30.2898 5.71526 30.583 5.64509 30.8762C5.43457 31.4625 5.22405 32.0489 5.0837 32.6352C4.87318 33.075 4.73283 33.5147 4.66266 33.9545C4.59248 34.1744 4.59248 34.321 4.45214 34.5409C4.38196 34.6141 4.31179 34.7607 4.31179 34.9073C4.31179 35.1272 4.24161 35.3471 4.10127 35.567C4.03109 35.6403 4.10127 35.7136 4.03109 35.8601C4.03109 35.9334 3.96092 36.0067 3.89075 36.0067C3.61005 36.1533 3.32935 36.2999 3.04866 36.2266C2.83814 36.2266 2.76797 36.2999 2.62762 36.3732C2.55744 36.4465 2.4171 36.3732 2.4171 36.2999C2.34692 36.1533 2.27675 36.0067 2.20657 35.8601C2.20657 35.7869 2.06623 35.7869 1.99605 35.7869C1.78553 35.8601 1.71536 35.7869 1.71536 35.6403C1.64518 35.4204 1.57501 35.2738 1.57501 35.0539C1.57501 34.6142 1.50484 34.1744 1.50484 33.7346C1.50484 33.075 1.50484 32.342 1.50484 31.6824C1.50484 31.5358 1.50484 31.3892 1.43466 31.2426C1.29432 30.3631 1.36449 29.4836 1.29432 28.6041C1.29432 28.1643 1.29432 27.7978 1.22414 27.3581C1.15397 27.1382 1.15397 26.845 1.22414 26.5518C1.22414 25.6723 1.15397 24.7928 1.08379 23.9133C0.943447 22.6673 1.01362 21.4946 0.943447 20.2486C0.873273 19.4423 0.8031 18.5628 0.8031 17.7566C0.8031 17.61 0.732926 17.3901 0.732926 17.2435C0.732926 16.9504 0.662752 16.5839 0.662752 16.2907C0.662752 15.118 0.522405 13.9453 0.452231 12.6993C0.452231 12.3328 0.382057 11.8931 0.382057 11.4533C0.311883 10.7204 0.24171 10.0607 0.171536 9.3278C0.171536 9.3278 0.24171 9.25451 0.24171 9.18122C0.24171 9.18122 0.24171 9.10792 0.311883 9.10792L0.382057 9.18122C0.452231 9.3278 0.452231 9.54769 0.452231 9.69427C0.452231 10.134 0.522405 10.5738 0.522405 11.0136C0.592578 11.4533 0.592578 11.8198 0.662752 12.2596C0.662752 12.3328 0.662752 12.4061 0.662752 12.4794C0.8031 13.5055 0.8031 14.4584 0.873273 15.4845C0.873273 15.8509 0.943447 16.2174 0.943447 16.5839C1.01362 18.1963 1.22414 19.7355 1.22414 21.348C1.29432 22.0809 1.29432 22.8139 1.36449 23.5468C1.36449 23.9133 1.36449 24.2064 1.36449 24.5729C1.36449 24.9394 1.43466 25.3058 1.43466 25.6723C1.43466 25.8189 1.43466 25.9655 1.50484 26.1121C1.50484 26.845 1.50484 27.6512 1.57501 28.3842C1.57501 28.5308 1.57501 28.6041 1.57501 28.6774C1.64518 29.4836 1.64518 30.3631 1.71536 31.1693C1.71536 31.5358 1.71536 31.9023 1.71536 32.2688C1.71536 32.7818 1.71536 33.2216 1.78553 33.7346C1.85571 34.1011 1.85571 34.4676 1.85571 34.834C1.85571 34.9073 1.92588 34.9073 1.99605 34.9806V34.9073C2.06623 34.9073 2.06623 34.834 2.06623 34.834C2.06623 34.6142 2.1364 34.4676 2.1364 34.2477C2.1364 33.8079 2.1364 33.3682 2.06623 32.9284C2.06623 32.7085 2.1364 32.5619 2.06623 32.4153C1.99605 31.3159 2.06623 30.2165 2.06623 29.1171C2.06623 28.8972 2.06623 28.6774 1.99605 28.3842H2.06623L1.99605 28.4575C2.1364 28.5308 2.20657 28.6774 2.20657 28.8239C2.20657 29.4103 2.20658 29.9234 2.27675 30.5097C2.27675 30.6563 2.27675 30.8029 2.27675 30.9495C2.27675 30.9495 2.34692 30.9495 2.34692 31.0228C2.34692 30.9495 2.4171 30.9495 2.4171 30.9495C2.4171 30.8029 2.4171 30.6563 2.4171 30.583C2.4171 29.9234 2.4171 29.1904 2.34692 28.5308C2.34692 28.3842 2.4171 28.3109 2.34692 28.1643C2.27675 27.4314 2.27675 26.6984 2.27675 25.9655C2.20658 25.599 2.20657 25.1593 2.20657 24.7928C2.20657 24.6462 2.20657 24.4996 2.20657 24.353C2.06623 23.2536 2.06623 22.1542 1.99605 21.1281C1.99605 21.0548 1.99605 20.9815 1.99605 20.9082C1.85571 20.0287 1.85571 19.0759 1.85571 18.1963C1.78553 17.9765 1.78553 17.7566 1.64518 17.5367C1.64518 17.4634 1.57501 17.3168 1.64518 17.2435C1.78553 16.7305 1.64518 16.2907 1.64518 15.8509C1.64518 15.7777 1.57501 15.7777 1.50484 15.7044C1.43466 15.7044 1.36449 15.6311 1.36449 15.4845C1.36449 14.8981 1.36449 14.3118 1.22414 13.7987C1.22414 13.6521 1.22414 13.4323 1.22414 13.2857C1.15397 12.5527 1.15397 11.8198 1.01362 11.0869C1.01362 10.9403 1.01362 10.7937 1.01362 10.6471C1.01362 10.5005 1.01362 10.3539 0.943447 10.2073C0.8031 9.25451 0.8031 8.30169 0.732926 7.34887C0.592578 6.46935 0.522405 5.51653 0.452231 4.637C0.452231 4.41712 0.452231 4.19724 0.382057 3.97736C0.311883 3.24442 0.311883 2.43819 0.171536 1.70525C0.171536 1.55867 0.171536 1.33879 0.171536 1.1189C0.171536 1.1189 0.24171 1.1189 0.24171 1.04561C0.311883 1.04561 0.382057 1.1189 0.382057 1.1189C0.382057 1.1922 0.452231 1.26549 0.452231 1.33879C0.452231 1.70525 0.522405 2.07172 0.522405 2.43819C0.522405 2.51149 0.522405 2.51149 0.522405 2.58478C0.662752 3.5376 0.662752 4.41712 0.8031 5.36994C0.8031 5.51653 0.8031 5.66312 0.8031 5.8097C0.8031 5.95629 0.8031 6.10288 0.873273 6.24947C0.943447 7.20229 1.01362 8.2284 1.08379 9.18122C1.15397 9.54769 1.15397 9.91415 1.15397 10.2806C1.22414 10.7204 1.22414 11.1601 1.29432 11.5266C1.36449 11.9664 1.36449 12.4061 1.36449 12.8459C1.36449 12.9925 1.36449 13.0658 1.43466 13.2124C1.43466 13.2857 1.57501 13.4323 1.57501 13.359C1.64518 13.359 1.64518 13.2857 1.64518 13.2124C1.64518 12.9925 1.64518 12.7726 1.64518 12.5527C1.50484 11.8931 1.57501 11.2334 1.50484 10.5738C1.50484 10.4272 1.50484 10.3539 1.50484 10.2073C1.36449 9.54769 1.36449 8.88804 1.29432 8.30169C1.15397 7.34887 1.15397 6.39605 1.01362 5.44324C0.943447 5.15006 1.01362 4.78359 0.943447 4.41712C0.873273 3.39101 0.8031 2.2916 0.662752 1.26549C0.662752 1.1189 0.662752 0.972316 0.662752 0.825729C0.662752 0.679141 0.8031 0.605845 0.873273 0.679142C0.943447 0.752428 1.08379 0.825729 1.15397 0.825729C1.22414 0.899023 1.29432 0.899023 1.22414 0.972317C1.22414 1.04561 1.22414 1.1189 1.29432 1.1922C1.36449 1.48537 1.36449 1.85184 1.36449 2.14502C1.29432 2.51149 1.36449 2.87795 1.43466 3.24442C1.43466 3.4643 1.50484 3.75748 1.43466 3.97736C1.36449 4.27054 1.43466 4.56371 1.43466 4.78359C1.50484 5.15006 1.50484 5.51653 1.57501 5.883C1.57501 5.95629 1.57501 6.10288 1.57501 6.17617C1.50484 6.54264 1.57501 6.90911 1.64518 7.27558C1.71536 7.78864 1.71536 8.30169 1.71536 8.81475C1.78553 9.54769 1.85571 10.3539 1.92588 11.0869C1.92588 11.5999 2.06623 12.0397 2.06623 12.5527C2.06623 12.7726 2.06623 12.9192 2.06623 13.1391C2.06623 13.5055 2.1364 13.872 2.27675 14.3118C2.34692 14.5317 2.4171 14.7515 2.34692 14.9714C2.27675 15.118 2.27675 15.2646 2.34692 15.3379C2.4171 15.5578 2.34692 15.8509 2.48727 16.0708C2.55744 16.1441 2.62762 16.2174 2.76797 16.1441C2.83814 16.1441 2.83814 16.1441 2.83814 16.0708C2.97849 16.0708 3.04866 16.0708 3.04866 16.2174C3.11883 16.4373 3.11883 16.7305 3.11883 16.9504C3.04866 17.2435 3.11883 17.5367 3.18901 17.8299C3.18901 18.0498 3.25918 18.2696 3.25918 18.4895C3.25918 19.1492 3.25918 19.7355 3.39953 20.3952C3.39953 20.5417 3.39953 20.615 3.39953 20.7616C3.39953 20.9815 3.32936 21.1281 3.32936 21.348C3.32936 21.4946 3.39953 21.7144 3.39953 21.861C3.39953 21.9343 3.39953 22.0076 3.39953 22.0076C3.32935 22.3741 3.39953 22.7406 3.4697 23.107C3.4697 23.4735 3.53988 23.84 3.4697 24.2064C3.4697 24.353 3.4697 24.4996 3.53988 24.6462C3.53988 24.7195 3.61005 24.7928 3.61005 24.8661C3.53988 25.3058 3.61005 25.7456 3.61005 26.1121C3.61005 26.5518 3.61005 26.9183 3.68022 27.2848C3.7504 27.4314 3.68022 27.6512 3.68022 27.7978C3.82057 28.091 3.68022 28.5308 3.7504 28.8239C3.82057 29.1171 3.82057 29.337 3.7504 29.5569C3.82057 29.7768 3.82057 29.9966 3.82057 30.2165C3.82057 30.5097 3.82057 30.7296 3.68022 31.0228C3.68022 31.0961 3.68022 31.2426 3.7504 31.3159C3.82057 31.3892 3.89075 31.3892 3.89075 31.3892C3.96092 31.2426 4.10127 31.0961 4.10127 30.9495C4.17144 30.5097 4.38196 30.0699 4.52231 29.6302C4.94335 28.3109 5.50474 26.9916 6.20648 25.8189C6.90822 24.4996 7.7503 23.2536 8.66256 22.1542C9.22395 21.5679 9.78534 20.9815 10.3467 20.5417C11.0485 19.8821 11.8204 19.4423 12.6625 19.0026C12.8028 18.9293 12.9432 18.9293 13.0835 18.856C13.294 18.7827 13.5747 18.7827 13.7151 18.4895C13.7852 18.4162 13.8554 18.4162 13.9256 18.4162C14.2063 18.2696 14.5572 18.1963 14.908 18.1231C15.2589 18.2696 15.6098 18.1231 15.9606 18.2696C16.3115 18.4162 16.6624 18.4895 17.0132 18.6361C17.2939 18.7094 17.5045 18.856 17.715 19.0759C17.7852 19.2225 17.9255 19.2958 18.0658 19.4423C18.136 19.5889 18.2764 19.7355 18.4167 19.8088C18.6974 20.0287 18.9781 20.2486 19.0483 20.615C19.1185 20.6883 19.1185 20.8349 19.2588 20.9082C19.329 20.9815 19.3991 21.1281 19.4693 21.2747C19.5395 21.4946 19.6798 21.7144 19.8202 21.9343C20.0307 22.2275 20.2412 22.594 20.3816 22.9604C20.5219 23.2536 20.5921 23.5468 20.7324 23.9133C20.8026 24.0598 20.8728 24.2797 20.943 24.4996C21.1535 24.9394 21.2938 25.4524 21.4342 25.9655C21.4342 26.0388 21.4342 26.1121 21.5044 26.1854C21.7149 26.6984 21.8552 27.2115 21.9956 27.6512C22.1359 28.0177 22.2763 28.3109 22.2763 28.6041C22.4166 28.8972 22.4868 29.1904 22.557 29.4836C22.557 29.5569 22.6271 29.6302 22.6973 29.6302C22.7675 29.7035 22.7675 29.7768 22.6973 29.9234C22.6973 29.9966 22.6973 30.1432 22.7675 30.2165C22.9078 30.4364 22.978 30.583 23.0482 30.8029C23.0482 31.0228 23.0482 31.1693 23.1885 31.3159C23.2587 31.6091 23.3289 31.829 23.4692 32.1222C23.4692 32.2688 23.4692 32.342 23.3991 32.4886C23.3991 32.6352 23.399 32.7085 23.5394 32.7818C23.6096 32.8551 23.6797 33.0017 23.6797 33.1483C23.6797 33.5147 23.7499 33.8079 23.8903 34.1744C23.9604 34.3943 23.9604 34.5409 23.8903 34.6874C23.8903 34.7607 23.8903 34.834 23.9604 34.9073C23.9604 34.9806 24.0306 35.0539 24.0306 35.1272C24.2411 35.3471 24.2411 35.567 24.2411 35.8601C24.2411 35.9334 24.2411 36.08 24.2411 36.2266C24.2411 36.2999 24.2411 36.3732 24.3113 36.4465C24.3815 36.4465 24.4517 36.5198 24.4517 36.5931C24.5218 36.7397 24.4517 36.9595 24.5218 37.1061C24.6622 37.1794 24.6622 37.3993 24.7324 37.4726C24.8025 37.5459 24.7324 37.6192 24.7324 37.6925C24.6622 37.6925 24.592 37.7658 24.592 37.7658ZM1.64518 14.1652C1.71536 14.0919 1.64518 14.0919 1.64518 14.0186C1.57501 14.0186 1.57501 14.0919 1.57501 14.0919C1.50484 14.1652 1.50484 14.1652 1.57501 14.2385C1.57501 14.2385 1.64518 14.2385 1.64518 14.1652ZM2.4171 32.8551C2.4171 32.8551 2.4171 32.8551 2.48727 32.9284C2.48727 32.9284 2.55744 32.9284 2.55744 32.7818C2.55744 32.7818 2.55744 32.7085 2.55744 32.6352C2.55744 32.5619 2.55744 32.4886 2.55744 32.4886C2.55744 32.4153 2.55744 32.342 2.48727 32.342C2.48727 32.342 2.4171 32.4153 2.4171 32.4886C2.4171 32.5619 2.4171 32.7085 2.4171 32.8551ZM2.69779 35.2738C2.69779 35.1272 2.69779 35.0539 2.62762 34.9073C2.62762 34.834 2.55744 34.834 2.48727 34.834C2.48727 34.834 2.48727 34.834 2.48727 34.9073C2.48727 35.1272 2.48727 35.2005 2.55744 35.2738C2.55744 35.3471 2.62762 35.3471 2.62762 35.3471C2.62762 35.2738 2.69779 35.2738 2.69779 35.2738ZM2.90831 17.4634C2.97849 17.1702 2.90831 16.8771 2.83814 16.6572C2.83814 16.5839 2.83814 16.5839 2.76797 16.5839H2.69779C2.62762 16.7305 2.55744 16.8771 2.55744 17.0236C2.62762 17.1702 2.62762 17.2435 2.62762 17.3901V17.4634C2.69779 17.5367 2.83814 17.61 2.83814 17.61C2.90831 17.5367 2.90831 17.4634 2.90831 17.4634ZM3.04866 19.0759V19.0026V18.9293C3.04866 18.9293 2.97849 18.9293 2.97849 19.0026C2.97849 19.0759 3.04866 19.0759 3.04866 19.0759ZM16.5922 19.0026C16.5922 19.0026 16.6624 19.0026 16.5922 18.9293C16.5922 18.7827 16.4518 18.7094 16.3817 18.7094C15.9606 18.5628 15.6098 18.4162 15.0484 18.4895C15.0484 18.4895 14.9782 18.4895 14.8379 18.4895L14.7677 18.5628C14.8379 18.5628 14.8379 18.6361 14.8379 18.6361C15.1185 18.7094 15.3992 18.7827 15.6799 18.7827C16.0308 18.856 16.2413 19.0026 16.5922 19.0026ZM0.24171 8.44828C0.171536 8.44828 0.171536 8.44828 0.171536 8.37499C0.101362 8.30169 0.101362 8.1551 0.101362 8.2284C0.101362 8.00852 0.101362 7.93522 0.101362 7.86193C0.101362 7.78864 0.171536 7.71534 0.24171 7.71534C0.24171 7.71534 0.24171 7.71534 0.24171 7.78864C0.24171 7.93522 0.24171 8.1551 0.311883 8.37499L0.24171 8.44828ZM2.83814 14.8981C2.76797 14.6782 2.76797 14.5317 2.76797 14.3118L2.83814 14.2385C2.83814 14.2385 2.90831 14.3118 2.90831 14.3851C2.90831 14.4584 2.90831 14.605 2.90831 14.8248C2.90831 14.7515 2.90831 14.8248 2.90831 14.8981H2.83814ZM0.0311883 6.17617C-0.0389854 6.10288 0.0311883 6.10288 0.0311883 6.10288C0.0311883 6.10288 0.101362 6.10288 0.0311883 6.17617C0.0311883 6.24947 0.0311883 6.24947 0.0311883 6.17617ZM51.6084 19.1492C51.6786 19.2958 51.7487 19.5156 51.8189 19.7355C51.8189 19.8088 51.7487 19.9554 51.6786 20.0287C51.6084 20.0287 51.468 20.102 51.3979 20.102C51.2575 20.102 51.1172 20.102 50.9768 20.102C50.8365 20.0287 50.7663 19.8821 50.6961 19.7355C50.626 19.5889 50.626 19.4423 50.4856 19.369C50.3453 19.2958 50.2751 19.2225 50.2049 19.1492C50.0646 18.6361 49.7137 18.3429 49.5032 17.9765C49.433 17.7566 49.2225 17.61 49.012 17.4634C48.3102 17.0969 47.5383 17.0236 46.7664 17.3168C45.7138 17.61 45.3629 17.8299 44.2401 18.3429C44.17 18.3429 44.0998 18.4162 44.0296 18.4895C43.8893 18.6361 43.6788 18.7827 43.4682 18.856C43.2577 18.9293 43.0472 19.0759 42.8367 19.2225C42.2051 19.7355 41.6437 20.2486 40.942 20.6883C40.942 20.6883 40.8718 20.7616 40.8016 20.7616C40.3104 21.348 39.749 21.7877 39.1876 22.3008C38.9771 22.5207 38.8368 22.7406 38.6262 23.0337C38.4157 23.1803 38.2754 23.4002 38.135 23.6201C37.9947 23.84 37.7842 23.9866 37.6438 24.2064H37.5736C37.2228 24.9394 36.5912 25.5257 36.2403 26.2587C36.1 26.6251 35.8895 26.845 35.6789 27.2115C35.4684 27.6512 35.1877 28.0177 35.0474 28.5308C35.0474 28.6041 34.9772 28.6774 34.907 28.7506C34.7667 28.8972 34.6965 29.0438 34.6965 29.1904C34.6263 29.337 34.6263 29.4836 34.486 29.5569C34.2053 29.7768 34.1351 30.1432 34.065 30.5097C33.9948 30.8029 33.7843 31.0961 33.7141 31.3892C33.3632 32.2688 33.0825 33.075 32.872 33.9545C32.872 34.0278 32.8018 34.1011 32.7316 34.1744C32.6615 34.2477 32.5913 34.3943 32.5913 34.4676C32.6615 34.6142 32.6615 34.7607 32.5211 34.9073C32.451 34.9806 32.451 35.1272 32.451 35.2738C32.3808 35.4204 32.451 35.6403 32.3808 35.7869C32.1001 36.4465 32.0299 37.1061 31.8896 37.7658C31.8194 37.8391 31.8194 37.9124 31.7492 37.9857C31.4685 38.2055 31.3983 38.572 31.1878 38.7919C31.1878 38.8652 31.0475 38.7919 30.9773 38.7186C30.9071 38.572 30.837 38.4254 30.7668 38.2055C30.6264 38.2055 30.4861 38.2055 30.3457 38.2055C30.2756 38.059 30.1352 37.9857 30.065 37.8391C29.9247 37.8391 29.8545 37.8391 29.7142 37.7658C29.5738 37.7658 29.4335 37.6192 29.3632 37.3993C29.2931 37.2527 29.2931 37.1061 29.2931 36.9595C29.2931 36.7397 29.3632 36.5931 29.3632 36.3732C29.4335 36.1533 29.4335 36.0067 29.3632 35.7869C29.3632 35.7136 29.2931 35.567 29.3632 35.4937C29.4335 35.2738 29.2931 35.1272 29.2931 34.9806C29.2931 34.3943 29.3632 33.8812 29.4335 33.2949C29.4335 33.2216 29.3632 33.075 29.4335 33.0017C29.644 32.7085 29.5738 32.4886 29.4335 32.1955C29.4335 31.6091 29.4335 31.0228 29.5738 30.4364C29.5738 30.0699 29.5738 29.7035 29.7142 29.337C29.7142 29.2637 29.7843 29.1904 29.7142 29.1171C29.5738 28.7507 29.7843 28.3109 29.7142 27.8711C29.7142 27.5779 29.7142 27.2115 29.9247 26.9183C29.9949 26.845 29.9949 26.7717 29.9949 26.7717C29.8545 26.4052 30.065 26.1121 30.065 25.7456C29.9949 25.4524 30.065 25.1593 30.1352 24.8661C30.1352 24.7195 30.1352 24.5729 30.1352 24.4263C30.3457 23.9133 30.3457 23.4735 30.4159 22.9604C30.5563 22.6673 30.5563 22.3008 30.5563 21.9343C30.4861 21.4946 30.5563 20.9815 30.6264 20.5417C30.6264 20.4685 30.6264 20.3952 30.6966 20.3952C30.7668 20.2486 30.7668 20.102 30.7668 19.9554C30.7668 19.4423 30.7668 19.0026 30.9071 18.4895C30.9773 18.1963 31.0475 17.9765 30.9773 17.61C30.9071 17.4634 30.9071 17.3168 30.9773 17.1702C31.1177 16.8771 31.1177 16.5106 31.0475 16.2174C30.9773 16.0708 31.0475 15.8509 31.1177 15.7044C31.1878 15.4845 31.1878 15.3379 31.1878 15.118C31.1177 14.7515 31.1177 14.3851 31.1878 14.0186C31.258 13.9453 31.258 13.872 31.3983 13.872C31.4685 14.2385 31.4685 14.5317 31.4685 14.8981C31.4685 15.4112 31.3983 15.8509 31.3983 16.364C31.3983 16.5839 31.3983 16.8038 31.3983 17.0236C31.3983 17.0236 31.3983 17.0969 31.3983 17.1702C31.679 16.7305 31.679 16.7305 31.679 16.4373C31.7492 15.4845 31.8896 14.605 31.9597 13.6521C31.9597 13.5788 32.0299 13.4323 32.0299 13.359C32.0299 13.2857 32.1001 13.2857 32.1703 13.2857C32.3106 13.6521 32.2404 14.0186 32.3106 14.3851C32.3106 14.7515 32.3808 15.118 32.451 15.4845C32.5913 15.3379 32.5211 15.118 32.5211 14.9714C32.5913 14.605 32.5913 14.2385 32.6615 13.872C32.6615 13.7987 32.8018 13.6521 32.8018 13.7254C32.872 13.7254 32.9422 13.7987 32.9422 13.872C32.9422 13.9453 32.9422 14.0186 32.9422 14.0919C32.9422 14.3118 32.9422 14.4584 32.9422 14.6782C32.9422 15.1913 32.9422 15.7777 32.9422 16.2907C33.0123 16.364 33.0825 16.4373 33.1527 16.5106C33.293 16.5839 33.2229 16.6572 33.0825 16.8038C33.0123 16.8038 33.0123 16.8038 32.872 16.8771C32.8018 17.1702 32.872 17.4634 32.8018 17.7566C32.8018 17.9765 33.0825 17.9765 33.0825 18.1231C33.0825 18.3429 33.0825 18.4895 32.872 18.6361C32.8018 18.7094 32.7316 18.7827 32.6615 18.7827C32.5913 19.6622 32.5211 20.615 32.3808 21.4213C32.2404 22.3008 32.2404 23.1803 32.1001 23.9866C32.1001 24.2064 32.1001 24.4996 32.0299 24.7195C32.0299 25.086 32.0299 25.3791 31.9597 25.7456C31.8896 26.0388 31.8896 26.4052 31.8896 26.7717C31.8896 26.9183 31.8896 27.1382 31.8194 27.3581C31.8896 27.2848 31.8896 27.2115 31.9597 27.1382C32.0299 26.4053 32.1001 25.6723 32.2404 24.9394C32.2404 24.8661 32.2404 24.7195 32.3106 24.6462C32.3106 24.5729 32.3808 24.4996 32.451 24.4996C32.451 24.5729 32.5913 24.5729 32.5211 24.6462C32.451 25.6723 32.3808 26.6984 32.3106 27.7245C32.1703 28.0177 32.3106 28.3109 32.2404 28.6774C32.2404 28.6774 32.3106 28.6774 32.3106 28.7506C32.3106 28.7506 32.3808 28.7507 32.451 28.6774C32.5913 28.5308 32.5913 28.3109 32.8018 28.2376C32.872 28.2376 32.872 28.091 32.872 28.091C32.872 27.7978 33.0825 27.7245 33.1527 27.5047C33.2229 27.3581 33.293 27.1382 33.3632 26.9916C33.4334 26.9183 33.4334 26.7717 33.5036 26.6984C33.9948 26.1121 34.2755 25.3791 34.7667 24.7928C34.907 24.6462 34.9772 24.4263 35.0474 24.2064C35.3983 23.5468 35.8895 22.8871 36.3807 22.3008C36.4509 22.1542 36.521 22.0076 36.5912 21.9343C36.8719 21.5679 37.1526 21.2747 37.4333 20.9815C37.7842 20.6883 37.9947 20.3952 38.3456 20.102C38.4157 20.0287 38.4859 19.8821 38.5561 19.8821C38.8368 19.8088 38.9069 19.5156 39.1175 19.4423C39.328 19.2958 39.5385 19.1492 39.6789 19.0026C39.9595 18.6361 40.2402 18.3429 40.6613 18.1963C40.8016 18.1231 41.0122 17.9765 41.1525 17.9032C41.2227 17.8299 41.2928 17.8299 41.363 17.7566C41.6437 17.3168 42.0648 17.1702 42.4858 17.0236C42.556 17.0236 42.6261 17.0236 42.6261 16.9504C42.9068 16.7305 43.1875 16.6572 43.4682 16.5839C43.7489 16.364 44.0998 16.2907 44.3805 16.1441C45.3629 15.7777 46.3454 15.4112 47.398 15.1913C47.8892 15.118 48.3804 15.118 48.8716 15.2646C49.0821 15.3379 49.2927 15.3379 49.5032 15.4112C50.1347 15.5578 50.626 15.9975 51.1172 16.4373C51.2575 16.6572 51.3277 16.8771 51.5382 17.0236C51.6084 17.0969 51.6786 17.2435 51.7487 17.3901C51.7487 17.61 51.7487 17.7566 51.8189 17.9765C51.9593 18.1963 51.8891 18.4162 51.7487 18.6361C51.5382 18.7827 51.5382 18.9293 51.6084 19.1492ZM31.1177 31.5358C31.1177 31.3892 31.1177 31.3159 31.1177 31.1693C31.1177 31.1693 31.1177 31.1693 31.0475 31.1693C31.0475 31.3159 31.0475 31.3892 31.0475 31.5358C31.0475 31.5358 31.0475 31.5358 31.1177 31.5358ZM31.6089 30.0699H31.679L31.6089 29.9966V30.0699ZM31.8194 28.8972C31.8194 28.3842 31.8896 27.8711 31.8194 27.3581C31.7492 27.7978 31.7492 28.2376 31.7492 28.6774C31.7492 28.7507 31.679 28.8239 31.8194 28.8972ZM44.5208 17.7566C44.5909 17.7566 44.6612 17.6833 44.6612 17.6833C44.5909 17.6833 44.5909 17.6833 44.5208 17.6833H44.4507C44.4507 17.7566 44.4507 17.7566 44.4507 17.7566C44.4507 17.8299 44.5208 17.8299 44.5208 17.7566ZM45.8541 17.2435C45.8541 17.1702 45.8541 17.1702 45.8541 17.1702C45.8541 17.0969 45.784 17.0969 45.7138 17.0969C45.6436 17.0969 45.5033 17.1702 45.5033 17.2435C45.6436 17.3901 45.7138 17.3168 45.8541 17.2435ZM32.3808 23.6201C32.3808 23.5468 32.451 23.4002 32.451 23.2536C32.5211 23.107 32.5913 22.8871 32.5211 22.6673C32.451 22.594 32.5913 22.4474 32.6615 22.2275C32.7316 22.3741 32.7316 22.4474 32.7316 22.4474C32.7316 22.8871 32.7316 23.3269 32.5913 23.6934C32.5913 23.84 32.5211 23.9133 32.451 23.9133C32.451 23.84 32.3808 23.6934 32.3808 23.6201ZM33.2229 15.4845C33.1527 15.4112 33.1527 15.4112 33.1527 15.4112C33.0123 15.118 33.1527 14.8981 33.2229 14.605C33.2229 14.8981 33.3632 15.118 33.293 15.4112L33.2229 15.4845ZM32.7316 19.5156C32.7316 19.4423 32.8018 19.369 32.8018 19.369C32.872 19.369 32.9422 19.4423 32.9422 19.5156C32.9422 19.5156 32.872 19.5889 32.8018 19.5889L32.7316 19.5156ZM70.4654 15.5578H70.5356C70.4654 15.5578 70.4654 15.5578 70.4654 15.5578ZM87.9384 37.5459C88.0086 37.6192 87.9384 37.7658 87.7981 37.7658C87.6577 37.8391 87.5876 37.8391 87.5174 37.8391C87.4472 37.8391 87.3771 37.9857 87.4472 38.059C87.5174 38.1323 87.5876 38.2788 87.6577 38.3521C87.7279 38.4254 87.6577 38.572 87.5876 38.572C87.5174 38.6453 87.4472 38.6453 87.3771 38.7186C87.3069 38.7919 87.2367 38.7919 87.1665 38.7186C86.956 38.7186 86.8858 38.7186 86.7455 38.7919C86.6051 38.8652 86.535 38.7919 86.4648 38.7919C86.3946 38.6453 86.3244 38.6453 86.1841 38.6453C86.1139 38.572 85.9736 38.572 85.9034 38.4987C85.7631 38.4254 85.6227 38.2055 85.5525 38.059C85.4122 37.4726 85.2017 36.9596 85.2017 36.4465C85.0613 35.2738 84.9911 34.1011 84.8508 32.9284C84.7806 31.9756 84.7105 31.0228 84.6403 29.9966C84.5701 29.7768 84.5701 29.4836 84.5701 29.1904C84.4298 28.0177 84.3596 26.845 84.2894 25.599C84.2192 25.2326 84.2192 24.7928 84.1491 24.353C84.0087 22.7406 83.9385 21.1281 83.728 19.5156C83.6578 18.7094 83.6578 17.8299 83.5175 17.0236C83.5175 15.9975 83.2368 15.0447 83.1666 14.0186C83.0965 13.9453 83.0965 13.7987 83.0263 13.7254C82.8859 13.5055 82.8859 13.359 82.8158 13.1391C82.8158 13.0658 82.8158 12.9925 82.7456 12.9192C82.6754 12.7726 82.3947 12.7726 82.3245 12.9192C82.114 13.2857 81.8333 13.5788 81.693 14.0186C81.5526 14.4584 81.2719 14.9714 81.1316 15.4112C80.3597 17.2435 79.6579 19.1492 78.9562 21.0548C78.7457 21.6412 78.465 22.1542 78.3246 22.7406C78.0439 23.5468 77.6931 24.353 77.5527 25.1593C77.4124 25.599 77.272 25.9655 77.1317 26.332C76.9913 26.7717 76.9212 27.2848 76.7808 27.7245C76.6405 28.0177 76.5703 28.3109 76.5001 28.6041C76.3598 28.8972 76.2194 29.1904 76.1493 29.5569C76.0791 30.1432 75.8686 30.6563 75.658 31.1693C75.5177 31.6091 75.3773 32.0489 75.1668 32.4886C75.1668 32.6352 75.0966 32.7818 75.0265 32.9284C74.8861 33.1483 74.6756 33.4414 74.5353 33.6613C74.3949 33.9545 74.1142 34.1011 73.9037 34.321C73.7633 34.3943 73.5528 34.321 73.4826 34.2477C73.3423 34.1744 73.202 34.0278 73.1318 33.8812C72.9914 33.8079 72.9213 33.7346 72.7809 33.7346C72.6406 33.6613 72.5002 33.6613 72.3599 33.588C72.2899 33.588 72.1496 33.5147 72.0794 33.4415C71.939 33.2216 71.7987 33.0017 71.6584 32.8551C71.5882 32.7085 71.518 32.6352 71.518 32.4886C71.518 32.342 71.518 32.1222 71.3777 31.9756C71.3075 31.9023 71.3075 31.829 71.3075 31.7557C71.3075 31.5358 71.1671 31.3159 71.1671 31.096C71.1671 30.9495 71.0268 30.8762 71.0268 30.8029C70.9566 30.583 70.8864 30.2898 70.8864 30.0699C70.8163 29.7768 70.8163 29.4836 70.7461 29.1904C70.7461 29.1171 70.7461 29.0438 70.7461 28.9705C70.8163 28.7507 70.7461 28.4575 70.6759 28.1643C70.6057 27.8711 70.5356 27.5047 70.4654 27.1382C70.3952 26.9916 70.3952 26.9183 70.3952 26.7717C70.3952 26.4785 70.325 26.1854 70.325 25.8189C70.325 25.6723 70.2549 25.5257 70.2549 25.3791C70.1847 25.3058 70.1847 25.2326 70.2549 25.1593C70.4654 24.8661 70.2549 24.5729 70.2549 24.2797C70.2549 24.0598 70.1145 23.84 70.1847 23.6201C70.1847 23.4002 70.1145 23.1803 70.1145 22.9604C70.1145 22.8871 70.0444 22.8139 70.0444 22.7406C70.1145 22.5207 69.9742 22.3008 69.9742 22.0076C70.1145 21.6412 69.9742 21.348 69.904 20.9815C69.904 20.615 69.6233 20.3219 69.7637 19.9554C69.6935 19.8821 69.6935 19.7355 69.6935 19.6622C69.5531 19.369 69.483 19.1492 69.5531 18.9293C69.6233 18.856 69.5531 18.7094 69.5531 18.6361C69.5531 18.5628 69.5531 18.4162 69.483 18.2696C69.4128 18.0498 69.3426 17.7566 69.2724 17.4634C69.2724 17.2435 69.2724 17.0236 69.2023 16.8038C69.2023 16.7305 69.2023 16.7305 69.2023 16.6572C69.2724 16.4373 69.1321 16.2174 68.9917 15.9975C68.9216 15.9242 68.8514 15.9242 68.7812 15.9975C68.6409 16.0708 68.5707 16.1441 68.5005 16.2174C68.29 16.6572 68.0795 16.9504 67.9391 17.3901C67.7286 17.8299 67.3778 18.2696 67.2374 18.7827C66.9567 19.2958 66.8164 19.8088 66.6058 20.3219C66.4655 20.7616 66.255 21.0548 66.1146 21.4213C65.9743 21.861 65.7638 22.3008 65.6936 22.7406C65.6936 22.8139 65.6234 22.8871 65.6234 22.9604C65.4129 23.4002 65.2725 23.84 65.1322 24.2797C65.1322 24.4263 64.9918 24.6462 64.9217 24.7928C64.7813 25.0127 64.7111 25.2326 64.7111 25.4524C64.641 25.599 64.641 25.7456 64.5708 25.8922C64.3603 26.4785 64.2199 27.0649 64.0094 27.6512C63.8691 28.0177 63.7287 28.4575 63.6585 28.8972C63.6585 29.0438 63.5884 29.1904 63.4479 29.337C63.3778 29.4836 63.3077 29.5569 63.3077 29.7035C63.3077 30.0699 63.0972 30.4364 63.0972 30.8762C63.0972 31.096 62.9567 31.2426 62.8866 31.4625C62.7463 31.6091 62.7463 31.7557 62.7463 31.9756C62.6761 32.1955 62.6761 32.342 62.5358 32.5619C62.4656 32.6352 62.4656 32.7818 62.3954 32.9284C62.3252 33.2949 62.2551 33.6613 61.9744 34.0278C61.9042 34.1744 61.9042 34.321 61.834 34.5409C61.834 34.6874 61.834 34.6874 61.6235 34.7607C61.6235 34.7607 61.5533 34.834 61.5533 34.9073C61.4832 34.9806 61.4832 35.1272 61.4832 35.2738C61.4832 35.3471 61.413 35.4937 61.2726 35.567C61.2726 35.567 61.2025 35.6403 61.1323 35.7136C61.1323 35.7869 61.0621 35.8601 60.9919 35.8601C60.8516 35.8601 60.7112 35.9334 60.5007 35.8601C60.5007 35.7869 60.4306 35.7869 60.4306 35.7869C60.0797 35.9334 59.799 35.9334 59.4481 35.8601C59.3779 35.8601 59.3779 35.8601 59.3078 35.9334C58.9569 36.0067 58.7464 35.8601 58.4657 35.7136C58.3955 35.7136 58.3253 35.7136 58.3253 35.6403C58.1148 35.2738 57.9745 34.9073 57.7639 34.6142C57.6938 34.4676 57.6938 34.321 57.7639 34.2477C57.7639 34.0278 57.7639 33.8812 57.6236 33.7346C57.6236 33.6613 57.6236 33.6613 57.6236 33.6613C57.5534 33.588 57.5534 33.5147 57.5534 33.4415C57.6236 33.0017 57.4131 32.5619 57.4131 32.1222C57.4131 32.0489 57.4131 31.9756 57.4131 31.9023C57.3429 31.829 57.2727 31.6824 57.2727 31.4625C57.3429 31.0228 57.2727 30.5097 57.1324 30.0699C57.0622 29.8501 57.1324 29.7035 57.1324 29.4836C57.1324 29.1904 57.1324 28.8972 57.0622 28.6041C56.992 28.5308 56.992 28.3842 57.0622 28.3109C57.0622 28.0177 57.0622 27.7978 56.992 27.5047C56.8517 26.6984 56.8517 25.8922 56.8517 25.1593C56.8517 25.0127 56.8517 24.7928 56.7815 24.6462C56.7815 24.4263 56.7815 24.2064 56.7815 23.9133C56.7815 23.6201 56.7113 23.2536 56.7113 22.9604C56.7113 22.6673 56.6412 22.4474 56.6412 22.2275C56.571 21.9343 56.6412 21.7144 56.6412 21.4946C56.571 21.2014 56.571 20.9082 56.5007 20.5417C56.4306 20.3219 56.4306 20.102 56.5007 19.8088C56.5007 19.7355 56.571 19.5889 56.5007 19.5156C56.4306 19.2958 56.571 19.0759 56.4306 18.856C56.4306 18.7094 56.4306 18.5628 56.4306 18.4162C56.4306 18.1231 56.5007 17.7566 56.4306 17.4634C56.3605 17.3901 56.4306 17.2435 56.4306 17.0969C56.5007 16.9504 56.5007 16.8038 56.5007 16.6572C56.4306 16.4373 56.4306 16.2907 56.4306 16.0708C56.4306 15.7777 56.4306 15.5578 56.4306 15.3379C56.3605 14.9714 56.3605 14.6782 56.5007 14.3851C56.571 14.3118 56.571 14.2385 56.571 14.1652C56.4306 13.872 56.571 13.6521 56.6412 13.4323C56.6412 13.4323 56.7113 13.359 56.7815 13.359C56.992 13.2857 57.2727 13.2857 57.4832 13.359C57.6938 13.359 57.8341 13.5788 57.7639 13.7987C57.7639 13.872 57.6938 14.0186 57.6938 14.0919C57.6938 14.1652 57.6938 14.2385 57.7639 14.3118C57.9043 14.3851 57.9745 14.5317 57.9043 14.6782C57.8341 14.9714 57.7639 15.2646 57.7639 15.6311C57.7639 16.5106 57.8341 17.3901 57.9043 18.2696C57.9043 18.5628 57.9043 18.9293 57.9745 19.2958C57.9745 19.9554 58.0446 20.6883 58.0446 21.348C58.0446 21.6412 58.1148 21.9343 58.1148 22.1542C58.1148 22.3008 58.185 22.4474 58.185 22.5207C58.3253 22.6673 58.3253 22.8871 58.3253 23.0337C58.2552 23.6201 58.3955 24.2064 58.4657 24.7928C58.4657 25.1593 58.4657 25.4524 58.4657 25.8189C58.5359 26.1854 58.606 26.5518 58.606 26.9183C58.6762 27.2115 58.6762 27.5779 58.6762 27.8711C58.7464 28.7506 58.8867 29.5569 58.9569 30.3631C59.0271 31.0961 59.1674 31.9023 59.2376 32.6352C59.2376 33.075 59.3779 33.5147 59.4481 33.8812C59.4481 33.9545 59.5183 33.9545 59.5183 33.9545C59.5183 33.9545 59.5885 33.9545 59.5885 33.8812C59.6586 33.7346 59.6586 33.588 59.7288 33.3682C59.799 33.3682 59.799 33.2949 59.799 33.2216C59.7288 32.9284 59.799 32.6352 59.6586 32.342C59.799 32.342 59.8692 32.342 59.9393 32.342C60.0095 32.342 60.0095 32.342 60.0797 32.2688C60.1499 32.1222 60.22 32.0489 60.3604 31.9756C60.4306 31.9023 60.5709 32.0489 60.5709 31.9023C60.5709 31.829 60.5007 31.7557 60.5007 31.6824C60.5007 31.6091 60.4306 31.5358 60.5007 31.4625C60.5007 31.2426 60.6411 31.096 60.7814 31.096C60.8516 31.0228 60.9218 31.0228 60.9218 31.0228C61.1323 30.8029 61.2726 30.583 61.2726 30.2898C61.3428 30.2165 61.3428 30.0699 61.3428 29.9234C61.3428 29.9234 61.3428 29.8501 61.2726 29.8501C61.2726 29.8501 61.2025 29.8501 61.1323 29.9234C61.1323 29.9966 61.0621 29.9966 60.9919 29.9966C60.9919 29.8501 61.0621 29.6302 61.0621 29.4836C61.1323 29.337 61.2025 29.2637 61.3428 29.337C61.413 29.337 61.4832 29.337 61.4832 29.2637C61.5533 29.1171 61.6235 28.9705 61.7639 28.8972H61.834C61.834 28.5308 62.0445 28.2376 62.0445 27.8711C62.0445 27.6512 62.1147 27.5047 62.2551 27.2848C62.3252 27.2848 62.3252 27.2115 62.3252 27.1382C62.2551 26.9916 62.3252 26.845 62.4656 26.7717C62.5358 26.6251 62.6761 26.5518 62.7463 26.4053C62.8165 26.332 62.8165 26.2587 62.8866 26.1854C62.9567 25.9655 63.027 25.6723 63.2375 25.4524C63.3778 25.2326 63.4479 25.0127 63.3778 24.7195C63.3778 24.5729 63.4479 24.4263 63.5182 24.353C63.7287 24.2064 63.7989 23.9866 63.8691 23.7667C63.9392 23.6201 64.0094 23.4735 64.0796 23.3269C64.1498 23.0337 64.2199 22.7406 64.4305 22.4474C64.5006 22.3008 64.5708 22.0809 64.641 21.9343C64.7111 21.7144 64.8515 21.5679 64.9217 21.348C64.9217 21.348 64.9918 21.2747 65.062 21.2747C65.062 21.348 65.062 21.4946 64.9918 21.5679C64.9217 21.861 65.062 22.0809 65.2024 22.2275C65.2725 22.3008 65.3427 22.3008 65.4129 22.2275C65.4831 22.0809 65.5532 22.0076 65.5532 21.861C65.9041 20.9815 66.255 20.102 66.676 19.2225C67.2374 17.9765 67.7988 16.7305 68.5005 15.6311C68.5005 15.6311 68.5005 15.5578 68.5707 15.5578C68.6409 15.4112 68.6409 15.1913 68.6409 15.0447C68.6409 14.8981 68.6409 14.8248 68.5707 14.7515C68.4304 14.6782 68.29 14.5317 68.1497 14.4584C68.0795 14.3851 67.9391 14.3851 67.869 14.4584C67.7286 14.605 67.5883 14.7515 67.4479 14.8981C67.2374 15.3379 66.9567 15.7044 66.7462 16.1441C66.255 16.9504 65.9041 17.7566 65.5532 18.6361C64.9918 19.9554 64.4305 21.2747 63.9392 22.594C63.8691 22.9604 63.7287 23.3269 63.5884 23.6934C63.5182 23.84 63.4479 23.9133 63.4479 23.9866C63.3778 23.9866 63.3077 23.9866 63.3077 23.9866C63.2375 23.9133 63.2375 23.9133 63.2375 23.9133C63.3077 23.7667 63.3778 23.6201 63.3778 23.4735C63.4479 23.3269 63.4479 23.1803 63.4479 23.0337C63.4479 22.8871 63.5182 22.7406 63.5182 22.6673C63.5884 22.4474 63.7287 22.3008 63.7989 22.0809C63.8691 22.0076 63.8691 21.9343 63.8691 21.861C63.7989 21.5679 63.9392 21.4213 64.0094 21.2014C64.0094 21.1281 64.0796 21.0548 64.1498 20.9815C64.2199 20.7616 64.2901 20.615 64.3603 20.3952C64.3603 20.1753 64.5006 20.0287 64.641 19.9554C64.7111 19.8088 64.7111 19.7355 64.641 19.5889C64.641 19.5156 64.641 19.4423 64.641 19.369C64.641 19.369 64.7111 19.369 64.7111 19.2958C64.9217 19.0026 65.1322 18.5628 65.3427 18.1963C65.4129 18.0498 65.4831 17.9032 65.4129 17.6833V17.61C65.6936 17.3901 65.7638 17.0236 65.9041 16.7305C65.9041 16.7305 65.9041 16.7305 65.9743 16.7305C66.1146 16.5106 66.255 16.364 66.3251 16.0708C66.3953 15.8509 66.6058 15.7044 66.676 15.4845C66.7462 15.2646 66.8164 15.118 66.9567 14.9714C67.1672 14.7515 67.3778 14.605 67.5883 14.3118C67.7286 14.1652 67.869 14.0919 68.0795 14.0919C68.2198 14.0919 68.3602 14.0186 68.5707 14.0186C68.5707 14.0186 68.7111 14.0919 68.7111 14.1652C68.7812 14.3851 68.8514 14.5317 68.9917 14.6782C68.9917 14.7515 69.0619 14.8248 69.2023 14.7515H69.2724C69.5531 14.605 69.7637 14.7515 69.9742 14.9714C70.1145 15.0447 70.1847 15.2646 70.325 15.4112C70.3952 15.4845 70.3952 15.4845 70.4654 15.5578C70.5356 15.6311 70.6759 15.7044 70.7461 15.7777C70.7461 15.8509 70.8163 15.9242 70.8163 15.9975C70.8163 16.1441 70.8163 16.2907 70.9566 16.364C71.0268 16.5106 71.0268 16.6572 70.9566 16.7305C70.8864 16.9504 70.9566 17.1702 70.9566 17.4634C71.0268 17.9032 71.0268 18.3429 71.1671 18.7827C71.1671 18.9293 71.1671 19.0026 71.1671 19.1492C71.1671 19.5156 71.1671 19.8821 71.2373 20.2486C71.3075 20.4685 71.3075 20.615 71.3075 20.7616C71.4478 21.7144 71.518 22.6673 71.6584 23.6201C71.7285 24.2797 71.7987 24.9394 71.8689 25.599C72.0794 27.0649 72.2899 28.4575 72.6406 29.8501C72.7107 30.4364 72.9213 31.0228 73.1318 31.6091C73.202 31.6824 73.2721 31.7557 73.3423 31.829C73.3423 31.829 73.3423 31.829 73.4125 31.829C73.623 31.9023 73.7633 31.829 73.9037 31.6824C74.044 31.5358 74.1142 31.3892 74.1844 31.2426C74.2546 31.0228 74.3247 30.8762 74.4651 30.7296C74.5353 30.583 74.6054 30.5097 74.6054 30.3631C74.6756 30.0699 74.7458 29.8501 74.9563 29.6302C75.0966 29.5569 75.0966 29.337 75.1668 29.1171C75.1668 29.0438 75.237 28.9705 75.3773 28.8972C75.5879 28.8239 75.5879 28.7506 75.4475 28.6041C75.4475 28.5308 75.3773 28.4575 75.4475 28.3842C75.5177 28.2376 75.5879 28.091 75.658 27.9444C75.658 27.8711 75.7282 27.8711 75.7984 27.7978C75.8686 27.7245 75.9387 27.7245 76.0089 27.6512H75.9387C76.2194 27.2115 76.3598 26.7717 76.5001 26.332C76.7106 25.599 76.9913 24.9394 77.2019 24.2064C77.4124 23.5468 77.6931 22.8871 77.9738 22.1542C78.6053 20.2486 79.3772 18.2696 80.1492 16.364C80.5702 15.4112 80.9211 14.4584 81.2719 13.5055C81.4825 13.0658 81.6228 12.6993 81.8333 12.3328L81.7632 12.2596H81.693C81.4825 12.5527 81.3421 12.9192 81.2018 13.2124C81.1316 13.359 81.0614 13.5055 80.9912 13.6521C80.9211 13.6521 80.8509 13.7254 80.8509 13.7254C80.7807 13.6521 80.7807 13.5788 80.7807 13.5788C80.7105 13.5055 80.7105 13.5055 80.7807 13.4323C80.9912 12.9192 81.2018 12.4061 81.4123 11.8931C81.4123 11.8198 81.4825 11.7465 81.4825 11.7465C81.6228 11.6732 81.693 11.5266 81.693 11.4533C81.693 11.2334 81.8333 11.0869 81.9035 10.9403C81.9737 10.867 82.0438 10.7937 82.114 10.7937C82.3245 10.6471 82.5351 10.5738 82.7456 10.4272C82.8158 10.3539 82.9561 10.3539 83.0965 10.3539C83.307 10.3539 83.4473 10.4272 83.6578 10.4272C83.7982 10.4272 83.8684 10.5005 84.0087 10.5738C84.0789 10.7204 84.1491 10.7937 84.2192 10.867C84.4298 11.0869 84.4999 11.2334 84.5701 11.4533C84.5701 11.5266 84.6403 11.5999 84.6403 11.5999C84.7806 11.8198 84.7806 12.0397 84.7806 12.2596C84.7806 12.4794 84.921 12.626 84.921 12.8459C84.921 13.0658 84.8508 13.2857 84.8508 13.5055C84.921 13.6521 84.921 13.872 84.921 14.0186C84.921 14.2385 84.9911 14.4584 85.0613 14.6782C85.0613 14.7515 85.0613 14.8248 85.0613 14.8981C85.0613 15.1913 85.0613 15.4845 85.1315 15.7777C85.2017 15.9242 85.2017 16.0708 85.2017 16.2174C85.2017 16.8038 85.2017 17.3901 85.4122 17.9032C85.4122 17.9765 85.4122 18.0498 85.4122 18.1231C85.342 18.4162 85.4122 18.7827 85.4122 19.1492C85.4824 19.4423 85.4824 19.8088 85.4824 20.102C85.5525 20.5417 85.6227 20.9815 85.6929 21.4213C85.6929 21.4946 85.6929 21.5679 85.6929 21.6412C85.6929 21.7877 85.6929 21.861 85.7631 22.0076C85.9034 22.1542 85.9034 22.2275 85.8332 22.4474C85.8332 22.4474 85.8332 22.5207 85.8332 22.594C85.9034 22.7406 85.9736 22.8871 85.9034 23.0337C85.9034 23.1803 85.9736 23.3269 85.9736 23.4735C85.9034 23.6934 85.9736 23.9133 86.0438 24.0598C86.1841 24.4263 86.2543 24.7195 86.2543 25.086C86.1841 25.2326 86.2543 25.3791 86.3946 25.4524C86.4648 25.4524 86.4648 25.4524 86.535 25.4524C86.6051 25.5257 86.6753 25.6723 86.6753 25.7456C86.6051 25.8922 86.535 25.8922 86.4648 25.9655C86.3244 26.0388 86.2543 26.0388 86.3244 26.1854C86.3244 26.2587 86.3244 26.2587 86.3244 26.2587C86.3946 26.5518 86.4648 26.7717 86.6753 26.9916C86.8157 27.0649 86.8157 27.3581 86.6753 27.4314C86.535 27.5779 86.4648 27.6512 86.3946 27.7978C86.3946 27.8711 86.3946 27.8711 86.3946 27.9444C86.4648 28.091 86.4648 28.3842 86.6753 28.5308C86.8157 28.6041 86.7455 28.6774 86.6753 28.7506C86.6051 28.8972 86.6051 29.0438 86.6753 29.1904C86.6753 29.2637 86.6753 29.2637 86.7455 29.2637C86.956 29.5569 87.0262 29.9233 86.8858 30.2898C86.8157 30.5097 86.8157 30.6563 86.956 30.8029C86.956 30.8762 86.956 30.9495 87.0262 30.9495C87.0262 31.2426 87.0262 31.4625 87.0964 31.6824C87.0964 31.9756 87.0964 32.1955 87.1665 32.4153C87.2367 32.6352 87.1665 32.8551 87.1665 33.075C87.1665 33.1483 87.0964 33.2949 87.1665 33.3682C87.3771 33.6613 87.2367 34.0278 87.2367 34.3943C87.2367 34.4676 87.3069 34.6142 87.3069 34.6874C87.4472 34.9073 87.4472 35.1272 87.4472 35.4204C87.4472 35.567 87.4472 35.7869 87.4472 35.9334C87.3771 36.1533 87.3771 36.2999 87.4472 36.4465C87.5174 36.5198 87.5876 36.5931 87.5876 36.6664C87.5876 36.8863 87.6577 37.0328 87.7981 37.1794C87.8683 37.2527 87.8683 37.3993 87.9384 37.5459ZM60.2902 33.075C60.2902 33.0017 60.2902 33.0017 60.22 33.0017C60.22 32.9284 60.22 32.9284 60.22 32.9284C60.1499 32.9284 60.1499 32.9284 60.1499 33.0017C60.0797 33.075 60.1499 33.075 60.22 33.1483C60.22 33.075 60.22 33.075 60.2902 33.075ZM61.9744 33.0017C61.9744 32.8551 61.9744 32.7818 62.0445 32.7085C61.9042 32.8551 61.834 33.0017 61.7639 33.1483C61.7639 33.2216 61.7639 33.2216 61.834 33.2216C61.9042 33.1483 61.9744 33.075 61.9744 33.0017ZM62.1147 32.7085V32.6352C62.1147 32.6352 62.1147 32.6352 62.1147 32.7085ZM62.1849 32.0489C62.1147 32.1222 62.1849 32.1222 62.1849 32.1222C62.1849 32.1222 62.1849 32.1222 62.1849 32.0489ZM62.3252 31.9023C62.3252 31.829 62.3252 31.7557 62.2551 31.7557V31.829V31.9023C62.2551 31.9756 62.2551 31.9756 62.2551 32.0489C62.3252 32.0489 62.3252 31.9756 62.3252 31.9023ZM62.6059 30.6563H62.6761V30.583L62.6059 30.6563ZM63.027 29.5569C63.027 29.5569 63.027 29.5569 63.027 29.4836C62.9567 29.5569 62.9567 29.6302 62.9567 29.6302C62.9567 29.6302 63.027 29.6302 63.027 29.5569ZM64.641 24.0598C64.7111 24.0598 64.7111 24.0598 64.7111 23.9866C64.8515 23.9133 64.8515 23.7667 64.8515 23.6201C64.7111 23.6934 64.641 23.7667 64.5708 23.9133C64.5708 23.9866 64.5708 24.0598 64.641 24.0598ZM65.1322 22.9604C65.1322 22.8871 65.1322 22.8139 65.1322 22.8139C65.062 22.7406 64.9918 22.7406 64.9918 22.8139C64.9217 22.8139 64.9217 22.8871 64.8515 22.8871C64.641 22.9604 64.641 23.0337 64.7111 23.107C64.8515 23.2536 64.8515 23.4002 64.8515 23.5468C64.9918 23.4002 65.062 23.2536 64.9918 23.0337C65.062 23.0337 65.1322 22.9604 65.1322 22.9604ZM72.6406 32.9284C72.6406 32.9284 72.7107 32.9284 72.7107 32.8551C72.5704 32.6352 72.5704 32.2687 72.5002 31.9756C72.1496 30.6563 71.939 29.2637 71.7284 27.8711C71.6583 27.0649 71.5882 26.332 71.4478 25.599C71.3777 24.5729 71.2373 23.5468 71.1671 22.5207C71.1671 22.3008 71.097 22.1542 71.097 22.0076C71.0268 21.2747 70.8864 20.5417 70.8163 19.7355C70.6759 19.0026 70.6057 18.2696 70.4654 17.4634C70.3952 17.0236 70.1847 16.5839 70.1145 16.0708C70.0444 15.7777 69.904 15.5578 69.6233 15.3379C69.5531 15.3379 69.4128 15.3379 69.3426 15.4112C69.3426 15.4112 69.2724 15.4845 69.2724 15.5578C69.2724 15.6311 69.2724 15.7044 69.3426 15.8509C69.483 16.5106 69.6935 17.2435 69.8338 17.9765C69.904 18.7094 70.1145 19.4423 70.1847 20.2486C70.1847 20.3219 70.1847 20.3952 70.1847 20.4685C70.3952 21.1281 70.4654 21.7877 70.5356 22.4474C70.6759 23.1803 70.7461 23.9866 70.8864 24.7195C70.9566 25.0127 70.9566 25.2326 71.0268 25.5257C71.1671 26.9183 71.3777 28.2376 71.5882 29.6302C71.6584 30.1432 71.7987 30.7296 71.939 31.2426C72.0092 31.5358 72.0794 31.9023 72.2899 32.1955C72.3599 32.342 72.43 32.5619 72.43 32.7818C72.5002 32.8551 72.5002 32.8551 72.5704 32.9284C72.5704 32.9284 72.5704 32.9284 72.6406 32.9284ZM83.0263 12.4061C83.0965 12.3328 83.0965 12.3328 83.0263 12.2596C83.0263 12.1863 82.9561 12.113 82.8859 12.113H82.8158C82.8158 12.2596 82.8158 12.3328 82.9561 12.4061H83.0263ZM85.0613 20.3219L84.9911 20.2486C84.9911 20.3219 84.921 20.3219 84.921 20.3219C84.921 20.3952 84.921 20.4685 84.921 20.5417C84.921 20.5417 84.921 20.615 84.9911 20.6883C84.9911 20.7616 85.0613 20.615 85.0613 20.4685C85.0613 20.4685 85.0613 20.3952 85.0613 20.3219ZM84.921 19.1492C84.921 19.0759 84.8508 19.0759 84.8508 19.0026C84.7806 19.0759 84.7806 19.1492 84.7806 19.1492C84.7806 19.2225 84.7806 19.2958 84.7806 19.369C84.7806 19.4423 84.8508 19.4423 84.921 19.4423C84.921 19.369 84.921 19.369 84.9911 19.369C84.9911 19.2958 84.9911 19.2225 84.921 19.1492ZM84.921 18.4162C84.8508 18.2696 84.8508 18.1963 84.7806 18.1963C84.7806 18.2696 84.7806 18.3429 84.7806 18.4162V18.4895C84.7806 18.4895 84.7806 18.5628 84.8508 18.5628C84.8508 18.4895 84.921 18.4895 84.921 18.4162ZM84.4298 14.9714C84.4298 14.9714 84.4298 14.9714 84.4298 15.0447C84.4298 15.4112 84.3596 15.8509 84.4999 16.2907C84.5701 16.4373 84.5701 16.5839 84.5701 16.7305C84.5701 17.0236 84.5701 17.2435 84.6403 17.5367C84.6403 17.61 84.7105 17.61 84.7105 17.61C84.7806 17.61 84.7806 17.5367 84.7806 17.5367C84.7806 17.3168 84.7806 17.0969 84.7105 16.8771C84.7105 16.5839 84.7105 16.2907 84.6403 15.9975C84.5701 15.7044 84.5701 15.3379 84.4999 15.0447C84.4999 14.9714 84.4999 14.8981 84.4298 14.9714ZM83.9385 11.6732C83.8684 11.8198 83.8684 11.9664 84.0087 12.113C84.0087 12.1863 84.0789 12.1863 84.0789 12.1863C84.1491 12.1863 84.1491 12.113 84.1491 12.113C84.1491 11.8931 84.0087 11.7465 83.9385 11.5999C83.9385 11.5999 83.9385 11.5999 83.9385 11.6732ZM84.2192 16.5839C84.2192 16.2907 84.1491 15.9975 84.1491 15.6311C84.0789 15.7044 84.0789 15.7044 84.0789 15.7044C84.0789 15.9242 84.0789 16.1441 83.9385 16.364C83.9385 16.4373 83.9385 16.5106 84.0087 16.5839C84.0087 16.6572 84.0789 16.7305 84.0789 16.6572C84.1491 16.6572 84.2192 16.6572 84.2192 16.5839ZM83.8684 14.6782C83.8684 14.7515 83.9385 14.8248 83.9385 14.7515C84.0087 14.7515 84.0087 14.6782 84.0087 14.605C84.0087 14.5317 84.0087 14.5317 84.0087 14.4584C83.9385 14.3851 83.9385 14.3851 83.9385 14.3851C83.8684 14.3851 83.8684 14.3851 83.8684 14.4584C83.8684 14.5317 83.8684 14.605 83.8684 14.6782ZM86.3946 37.9857C86.3946 38.059 86.4648 38.059 86.4648 38.1323C86.535 37.9124 86.535 37.6192 86.535 37.3993C86.3245 36.6664 86.2543 35.8601 86.1841 35.0539C86.0438 34.1744 86.0438 33.2949 85.9736 32.4153C85.9034 31.9023 85.8332 31.4625 85.8332 30.9495C85.7631 30.5097 85.7631 29.9966 85.6929 29.4836C85.6929 29.1904 85.5525 28.8239 85.4824 28.5308C85.4122 27.8711 85.2017 27.2848 85.2718 26.6251C85.2718 26.5518 85.2017 26.4053 85.2017 26.332C85.1315 26.0388 85.1315 25.7456 85.0613 25.4524C85.0613 25.2326 85.0613 24.9394 85.0613 24.7195C84.9911 24.353 84.921 24.0599 84.921 23.6934C84.921 23.4735 84.921 23.2536 84.8508 22.9604C84.8508 22.5207 84.7806 22.0076 84.7105 21.4946C84.6403 21.0548 84.6403 20.5417 84.5701 20.0287C84.5701 19.7355 84.5701 19.2958 84.4999 19.0026C84.4298 18.6361 84.4298 18.3429 84.3596 17.9765C84.3596 17.7566 84.3596 17.4634 84.2894 17.2435C84.2894 17.2435 84.2894 17.2435 84.2192 17.1702C84.2192 17.1702 84.1491 17.1702 84.0789 17.2435C84.0789 17.3901 84.0087 17.4634 84.0087 17.61C83.9385 17.7566 83.9385 17.9765 84.0789 18.1231C84.0789 18.1963 84.1491 18.3429 84.2192 18.4162C84.2192 18.7827 84.3596 19.0759 84.2192 19.369C84.1491 19.5889 84.1491 19.7355 84.1491 19.9554C84.2192 20.3219 84.2192 20.6883 84.2192 21.0548C84.2894 21.5679 84.3596 22.0076 84.3596 22.4474C84.4298 23.5468 84.5701 24.6462 84.6403 25.7456C84.7105 26.6984 84.7806 27.6512 84.921 28.6774C84.921 29.2637 84.9911 29.8501 85.0613 30.3631C85.1315 31.2426 85.2017 32.1955 85.2718 33.075C85.342 33.6613 85.4122 34.321 85.4824 34.9806C85.4824 35.2005 85.5525 35.4204 85.6227 35.7136C85.6227 35.7869 85.6929 35.7869 85.6929 35.7869C85.7631 35.7136 85.7631 35.7136 85.7631 35.7136C85.7631 35.6403 85.8332 35.4937 85.8332 35.4204C85.8332 35.3471 85.8332 35.2738 85.9034 35.2738C85.9034 35.2738 85.9034 35.3471 85.9034 35.4204C85.9034 35.6403 85.9736 35.7869 86.0438 36.0067C86.1139 36.2999 86.1841 36.5931 86.1841 36.9595C86.1841 37.326 86.2543 37.6192 86.3946 37.9857ZM86.6051 38.2788V38.2055C86.6051 38.1322 86.535 38.1323 86.4648 38.1323C86.535 38.2788 86.535 38.3521 86.6051 38.2788ZM65.062 21.2014V21.2747C65.062 21.2747 65.062 21.2747 65.062 21.2014ZM62.1147 26.332L62.1849 26.4053H62.1147V26.332ZM62.6761 26.1121C62.6761 26.1121 62.6761 26.1121 62.6059 26.0388C62.6761 26.0388 62.6761 26.0388 62.6761 26.0388C62.6761 26.0388 62.7463 26.0388 62.6761 26.1121ZM112.757 37.3993C112.827 37.4726 112.827 37.6925 112.827 37.8391C112.827 37.9857 112.687 38.1322 112.477 38.2055C112.406 38.2055 112.266 38.2055 112.126 38.2055C111.985 38.2055 111.915 38.2788 111.985 38.4254C111.985 38.4987 111.985 38.572 111.985 38.7186C111.985 38.7186 111.915 38.7919 111.845 38.7919C111.845 38.8652 111.775 38.7919 111.705 38.7919C111.635 38.7186 111.635 38.6453 111.564 38.572C111.424 38.2055 111.354 37.9124 111.284 37.5459C111.284 37.4726 111.284 37.3993 111.213 37.326C111.213 37.1794 111.143 37.1061 111.003 37.0328C110.863 36.9596 110.722 36.813 110.652 36.6664C110.582 36.5198 110.512 36.3732 110.442 36.2266C110.442 35.8601 110.301 35.567 110.231 35.2005C110.161 34.834 110.161 34.5409 110.091 34.1744C110.091 34.0278 110.021 33.9545 110.021 33.8079C109.95 32.8551 109.81 31.829 109.67 30.8762C109.67 30.2165 109.529 29.5569 109.459 28.8972C109.319 28.1643 109.249 27.5047 109.178 26.7717C109.038 26.1854 108.968 25.599 108.898 25.0127C108.828 24.4996 108.757 24.0598 108.687 23.6201C108.687 23.5468 108.687 23.4735 108.617 23.4002C108.547 23.1803 108.547 23.0337 108.547 22.8139C108.617 22.594 108.547 22.4474 108.336 22.3008C108.266 22.2275 108.266 22.1542 108.196 22.0076C108.126 21.7877 108.126 21.5679 108.336 21.348C108.336 21.348 108.336 21.2014 108.266 21.2014C107.985 21.0548 107.985 20.6883 107.985 20.3952C108.126 20.1753 108.056 20.0287 107.985 19.8088C107.845 19.5156 107.775 19.2225 107.775 18.9293C107.775 18.6361 107.705 18.4162 107.635 18.1963C107.564 18.0498 107.564 17.9032 107.494 17.7566C107.494 17.6833 107.424 17.5367 107.354 17.4634C107.214 17.2435 107.214 17.0236 107.284 16.8038C107.284 16.7305 107.284 16.6572 107.284 16.5839C107.143 16.2174 107.003 15.9242 106.933 15.5578C106.933 15.4112 106.863 15.3379 106.793 15.2646C106.652 15.118 106.512 14.8981 106.371 14.6782C106.231 14.5317 106.091 14.5317 105.95 14.6782C105.74 14.8981 105.6 15.0447 105.459 15.1913C105.319 15.3379 105.249 15.4112 105.249 15.4845C105.179 15.7044 105.038 15.8509 104.968 15.9975C104.477 16.5106 104.126 17.1702 103.705 17.7566C103.635 17.8299 103.565 17.9765 103.494 18.1231C103.424 18.3429 103.354 18.4895 103.214 18.6361C103.143 18.7094 103.073 18.7827 103.073 18.856C103.003 19.1492 102.863 19.369 102.652 19.6622C102.652 19.7355 102.582 19.8821 102.512 19.9554C102.512 20.0287 102.512 20.102 102.442 20.1753C102.372 20.3219 102.161 20.4685 102.091 20.6883C102.091 20.9082 102.021 21.0548 101.88 21.2747C101.81 21.348 101.81 21.4946 101.74 21.5679C101.6 22.0076 101.389 22.3741 101.249 22.7406C101.179 22.8139 101.179 22.8871 101.108 22.9604C100.968 23.1803 100.828 23.4002 100.687 23.6201C100.477 24.2064 100.126 24.7928 99.9857 25.4524C99.9155 25.599 99.8453 25.7456 99.8453 25.8922C99.7752 26.1121 99.5646 26.1854 99.4945 26.4053C99.4243 26.6251 99.4243 26.845 99.2839 27.0649C99.2839 27.1382 99.2138 27.2848 99.1436 27.3581C99.0032 27.6512 98.7927 27.8711 98.7226 28.2376C98.6524 28.5308 98.4419 28.8239 98.4419 29.1171C98.3717 29.337 98.3015 29.4836 98.1612 29.7035C97.9506 29.9966 97.9506 30.3631 97.7401 30.7296C97.7401 30.8029 97.7401 30.8762 97.6699 30.9495C97.6699 31.1693 97.6699 31.3159 97.5296 31.4625C97.4594 31.5358 97.3892 31.6824 97.3892 31.829C97.1787 32.2688 96.9682 32.7818 96.8279 33.2216C96.6173 33.6613 96.4068 34.1011 96.2665 34.6142C96.1261 34.9073 95.9156 35.2005 95.7051 35.4204C95.3542 35.6403 95.0033 36.0067 94.7928 36.3732C94.6525 36.4465 94.5121 36.5198 94.3718 36.3732C94.3016 36.3732 94.2314 36.2999 94.1613 36.2266C94.0911 36.0067 93.9507 35.8601 93.8806 35.6403C93.7402 35.4937 93.5999 35.3471 93.5297 35.2738C93.3893 35.1272 93.3192 34.9073 93.3192 34.7607C93.249 34.2477 93.1086 33.8079 93.0385 33.2949C92.9683 33.0017 92.9683 32.7085 92.9683 32.4153C92.9683 32.1222 92.9683 31.9023 92.8981 31.6824C92.828 31.3892 92.7578 31.096 92.7578 30.8762C92.7578 29.8501 92.6174 28.7507 92.6174 27.7245C92.6174 27.2848 92.5473 26.845 92.5473 26.332C92.5473 26.1854 92.5473 26.0388 92.5473 25.8922C92.5473 25.5257 92.5473 25.086 92.4771 24.7195C92.4771 24.4263 92.4771 24.1331 92.5473 23.7667C92.5473 23.6934 92.5473 23.5468 92.5473 23.4002C92.4771 22.7406 92.4771 22.0809 92.4771 21.4213C92.4771 20.9082 92.4069 20.3952 92.4771 19.8821C92.4771 19.8088 92.4771 19.6622 92.4771 19.5889C92.4069 19.2958 92.4069 19.0026 92.4771 18.7094C92.4771 18.4895 92.4771 18.2696 92.4771 18.0498C92.4069 17.61 92.4771 17.2435 92.5473 16.8771C92.5473 16.5839 92.5473 16.2174 92.4771 15.9242C92.4771 15.8509 92.4771 15.7777 92.4771 15.7044C92.6174 14.8248 92.4771 14.0186 92.5473 13.2124C92.5473 12.8459 92.6174 12.5527 92.6876 12.1863C92.6876 12.0397 92.6876 11.8198 92.7578 11.6732C92.7578 11.5999 92.7578 11.5266 92.8279 11.5266C92.8279 11.4533 92.9683 11.5266 93.0385 11.5999C93.0385 11.6732 93.0385 11.6732 93.0385 11.6732C93.1086 11.7465 93.1086 11.8198 93.1788 11.8198L93.249 11.7465C93.249 11.6732 93.249 11.5999 93.249 11.4533C93.3192 11.38 93.3893 11.2334 93.5297 11.2334C93.67 11.2334 93.8104 11.2334 93.9507 11.1601C94.0911 11.0869 94.2314 11.2334 94.1613 11.4533C94.1613 11.5999 94.0911 11.7465 94.0911 11.8931C94.0911 11.9664 94.0209 12.0397 94.0209 12.113C94.0209 12.2596 94.0209 12.3328 94.0911 12.4061C94.0911 12.4794 94.1613 12.4794 94.2314 12.5527C94.3016 12.626 94.3718 12.6993 94.3718 12.8459C94.3718 13.2124 94.3016 13.5788 94.3718 13.9453C94.4419 14.0186 94.3718 14.1652 94.3718 14.2385C94.3718 14.3851 94.3016 14.4584 94.3718 14.5317C94.4419 14.8981 94.5121 15.1913 94.442 15.5578C94.3718 15.6311 94.3718 15.7044 94.442 15.7777C94.442 15.9975 94.442 16.1441 94.442 16.364C94.3718 16.5839 94.5121 16.7305 94.5121 16.9504C94.4419 17.1702 94.442 17.3901 94.442 17.61C94.5121 17.7566 94.5121 17.8299 94.5823 17.9765C94.5823 18.0498 94.5823 18.1231 94.5823 18.2696C94.5121 18.4162 94.5121 18.6361 94.5823 18.856C94.5823 19.1492 94.6525 19.4423 94.5121 19.6622C94.5823 19.9554 94.5823 20.1753 94.5823 20.3952C94.5823 20.615 94.5823 20.8349 94.5121 21.0548C94.5121 21.2014 94.5121 21.348 94.5823 21.4946C94.5823 21.5679 94.6525 21.6412 94.5823 21.7877C94.5121 21.9343 94.5121 22.0809 94.5823 22.2275C94.7226 22.4474 94.7226 22.6673 94.6525 22.8871C94.5823 23.0337 94.5823 23.1803 94.5121 23.2536C94.5121 23.3269 94.5121 23.4002 94.5121 23.4735C94.6525 23.6934 94.5823 23.84 94.5121 24.0598C94.5121 24.1331 94.5121 24.2064 94.5121 24.2797C94.6525 24.4996 94.5823 24.7928 94.6525 25.0127C94.7226 25.3791 94.6525 25.7456 94.5121 26.0388C94.5121 26.1854 94.5121 26.2587 94.5823 26.4053C94.6525 26.5518 94.6525 26.6984 94.6525 26.9183C94.6525 27.2115 94.6525 27.5047 94.5823 27.7245C94.5121 27.9444 94.5823 28.1643 94.6525 28.3842C94.7226 28.7507 94.7928 29.1171 94.7227 29.5569C94.6525 29.6302 94.6525 29.7768 94.6525 29.9234C94.7226 30.2165 94.7227 30.5097 94.7227 30.8029C94.7227 31.0228 94.7226 31.3159 94.7928 31.5358C94.7928 31.6824 94.863 31.829 94.7928 31.9756C94.7928 32.1222 94.7928 32.2687 94.7928 32.4153C94.7226 32.7085 94.7928 32.9284 94.863 33.1483C94.9332 33.2216 94.9332 33.2216 95.0033 33.2949C95.0735 33.2949 95.2139 33.2216 95.2139 33.075C95.2139 32.9284 95.284 32.7085 95.3542 32.4886C95.4946 32.1222 95.6349 31.7557 95.7051 31.3892C95.9156 30.6563 96.1963 29.9966 96.477 29.337C96.5472 29.1171 96.6173 28.9705 96.6173 28.8239C96.6173 28.6774 96.6173 28.6041 96.6875 28.5308C96.8279 27.8711 97.1787 27.2848 97.3892 26.6251C97.5296 26.332 97.6699 26.0388 97.8103 25.7456C97.8805 25.599 98.0208 25.4524 98.0208 25.2326C98.0208 25.1593 98.0208 25.086 98.091 25.0127C98.1612 24.7195 98.3015 24.4996 98.3717 24.2064C98.4419 24.0598 98.5822 23.9133 98.6524 23.7667C98.7225 23.6201 98.7225 23.4002 98.7927 23.2536C98.9331 22.9604 99.0734 22.6673 99.2138 22.4474C99.3541 22.1542 99.4945 21.9343 99.6348 21.6412C99.705 21.348 99.8453 21.0548 99.9155 20.7616C100.056 20.615 100.126 20.3952 100.266 20.2486C100.337 20.102 100.407 19.9554 100.477 19.8088C100.547 19.4423 100.828 19.1492 100.898 18.7094C101.179 18.4162 101.319 17.9765 101.459 17.61C101.67 17.1702 101.951 16.7305 102.091 16.2907C102.161 16.1441 102.301 16.0708 102.372 15.9242C102.512 15.6311 102.793 15.4845 102.793 15.118C103.003 14.9714 103.143 14.6782 103.284 14.3851C103.494 14.1652 103.635 13.9453 103.845 13.6521C103.915 13.5788 104.056 13.5055 104.126 13.359C104.266 13.2857 104.266 13.1391 104.407 12.9925C104.477 12.9925 104.547 12.9192 104.617 12.8459C104.757 12.5527 105.108 12.4061 105.319 12.1863C105.529 12.0397 105.74 11.9664 106.021 11.8931C106.652 11.7465 106.863 11.8198 107.424 12.113C107.564 12.2596 107.775 12.4061 107.915 12.4794C108.056 12.626 108.126 12.6993 108.126 12.8459C108.196 12.9192 108.196 12.9925 108.196 13.0658C108.196 13.359 108.407 13.5788 108.547 13.7987C108.687 13.9453 108.828 14.0186 108.757 14.2385C108.757 14.4584 108.898 14.605 108.968 14.7515C109.038 14.9714 109.108 15.1913 109.108 15.4112C109.178 15.5578 109.178 15.7044 109.319 15.7777C109.319 15.9242 109.389 15.9975 109.459 16.1441C109.459 16.4373 109.599 16.7305 109.74 16.9504C109.88 17.1702 109.95 17.3901 109.95 17.6833C110.021 17.9032 110.021 18.1963 110.091 18.4895C110.091 18.7094 110.161 19.0026 110.301 19.1492C110.301 19.2225 110.371 19.369 110.371 19.4423C110.301 19.6622 110.371 19.8821 110.512 20.0287C110.512 20.102 110.582 20.1753 110.582 20.1753C110.652 20.5417 110.652 20.8349 110.722 21.1281C110.792 21.348 110.863 21.6412 110.792 21.9343C110.792 22.0809 110.863 22.3008 110.863 22.4474C110.863 22.594 110.933 22.7406 111.003 22.8871C111.073 23.0337 111.073 23.1803 111.073 23.3269C110.863 23.7667 111.073 24.2064 111.073 24.6462C111.143 24.7195 111.143 24.7928 111.213 24.8661C111.284 25.0127 111.354 25.2326 111.284 25.3791C111.213 25.599 111.284 25.8189 111.284 26.0388C111.284 26.1854 111.284 26.2587 111.354 26.4053C111.424 26.5518 111.424 26.6984 111.424 26.9183C111.424 27.0649 111.424 27.1382 111.494 27.2848C111.564 27.5047 111.635 27.7978 111.635 28.091C111.635 28.1643 111.635 28.2376 111.635 28.3109C111.635 28.4575 111.635 28.6041 111.564 28.6774C111.494 28.8239 111.494 28.8972 111.564 29.0438C111.705 29.2637 111.775 29.5569 111.845 29.8501C111.845 29.9233 111.775 29.9966 111.775 30.0699C111.705 30.2898 111.705 30.4364 111.845 30.6563C111.845 30.6563 111.915 30.7296 111.915 30.8029C111.845 31.2426 111.915 31.6824 111.985 32.1222C112.056 32.342 112.056 32.5619 111.985 32.8551C111.985 32.9284 111.985 33.075 111.985 33.2216C112.056 33.5147 112.126 33.8079 112.126 34.1011C112.126 34.1744 112.126 34.2477 112.126 34.2477C112.266 34.5409 112.266 34.834 112.266 35.0539C112.336 35.1272 112.266 35.2738 112.336 35.3471C112.477 35.7136 112.477 36.08 112.477 36.4465C112.406 36.6664 112.477 36.8863 112.547 37.0328C112.617 37.1794 112.687 37.2527 112.757 37.3993ZM93.1788 27.1382C93.1788 26.9183 93.1788 26.6984 93.1788 26.4785C93.1086 26.6984 93.1788 26.9183 93.1788 27.1382ZM93.67 12.4061C93.67 12.4794 93.67 12.4794 93.7402 12.5527C93.7402 12.5527 93.7402 12.4794 93.7402 12.4061C93.7402 12.3328 93.7402 12.3328 93.7402 12.2596C93.67 12.2596 93.67 12.3328 93.67 12.4061ZM93.7402 29.9966V30.0699C93.7402 30.0699 93.7402 30.0699 93.7402 29.9966V29.9234C93.7402 29.9234 93.7402 29.9234 93.7402 29.9966ZM93.8806 32.8551C93.8806 32.8551 93.9507 32.8551 93.9507 32.7085C93.8806 32.7085 93.9507 32.6352 93.8806 32.5619C93.8806 32.5619 93.8806 32.5619 93.8806 32.7085C93.8806 32.7085 93.8806 32.7085 93.8806 32.7818V32.8551ZM94.0911 34.2477C94.1613 34.1744 94.1613 34.0278 94.0911 33.9545L94.0209 34.0278C94.0209 34.1011 94.0209 34.1011 94.0209 34.1744L94.0911 34.2477ZM102.372 17.3901C102.301 17.4634 102.301 17.61 102.301 17.7566C102.372 17.61 102.372 17.5367 102.372 17.3901ZM102.442 17.3168C102.512 17.2435 102.512 17.2435 102.512 17.1702L102.442 17.2435C102.442 17.3168 102.442 17.3168 102.442 17.3168ZM102.933 16.5839C103.143 16.2907 103.424 15.9242 103.565 15.6311C103.635 15.5578 103.635 15.4845 103.635 15.4112C103.494 15.3379 103.424 15.4112 103.354 15.4845C103.073 15.7777 102.933 16.1441 102.793 16.5106C102.793 16.5839 102.793 16.5839 102.793 16.5839C102.863 16.6572 102.933 16.6572 102.933 16.5839ZM103.845 15.2646C103.915 15.1913 103.986 15.118 104.056 15.0447C103.986 15.0447 103.915 15.0447 103.845 15.0447C103.775 15.0447 103.705 15.118 103.705 15.1913C103.635 15.2646 103.635 15.3379 103.635 15.3379C103.705 15.3379 103.775 15.3379 103.845 15.2646ZM104.266 14.7515C104.336 14.605 104.336 14.5317 104.336 14.4584C104.266 14.4584 104.196 14.5317 104.126 14.605C104.056 14.6782 103.986 14.7515 104.056 14.8981C104.056 14.9714 104.056 14.9714 104.056 15.0447C104.126 14.9714 104.196 14.8248 104.266 14.7515ZM105.459 13.6521C105.529 13.6521 105.529 13.5788 105.529 13.5055C105.459 13.5055 105.459 13.4323 105.459 13.4323C105.319 13.359 105.179 13.4323 105.108 13.5055C104.828 13.7254 104.547 14.0186 104.407 14.3851C104.336 14.3851 104.336 14.3851 104.336 14.3851C104.477 14.3851 104.547 14.3851 104.617 14.3118C104.898 14.0919 105.179 13.872 105.459 13.6521ZM106.793 13.5055C106.863 13.5055 106.933 13.4323 106.933 13.359V13.2857C106.793 12.9925 106.582 12.7726 106.371 12.626C106.371 12.5527 106.301 12.5527 106.301 12.5527C106.231 12.5527 106.161 12.5527 106.021 12.5527C106.021 12.626 105.95 12.7726 105.95 12.8459C106.021 12.9925 106.091 13.1391 106.231 13.2857C106.231 13.359 106.301 13.4323 106.301 13.4323C106.512 13.5055 106.652 13.5788 106.793 13.5055ZM96.1963 35.4204C96.1963 35.4204 96.1963 35.4937 96.2665 35.567C96.1963 35.567 96.1963 35.7136 96.1963 35.7869C96.1261 35.7869 96.0559 35.8601 96.0559 35.7869C95.9858 35.7869 95.9858 35.7136 95.9858 35.7136C96.0559 35.6403 96.056 35.567 96.1261 35.4937C96.1261 35.4204 96.1963 35.4204 96.1963 35.4204ZM122.196 36.5931C122.267 36.8863 122.337 37.4726 122.267 37.7658C122.267 37.8391 122.267 37.8391 122.196 37.8391H122.126C122.056 37.6925 121.916 37.5459 121.916 37.326C121.846 37.0328 121.775 36.6664 121.775 36.3732C121.775 35.4204 121.705 34.5409 121.705 33.6613C121.705 33.5147 121.705 33.2949 121.705 33.1483C121.635 32.4886 121.635 31.9023 121.635 31.3159C121.565 30.3631 121.565 29.4836 121.495 28.5308C121.424 27.7245 121.424 26.845 121.354 25.9655C121.354 25.3058 121.354 24.7195 121.284 24.0598C121.214 23.9866 121.214 23.9133 121.214 23.84C121.284 23.107 121.144 22.3741 121.214 21.5679C121.214 21.1281 121.074 20.7616 121.003 20.3219C121.003 20.2486 120.933 20.2486 120.863 20.1753C120.793 20.1753 120.723 20.2486 120.723 20.3219C120.723 20.3952 120.653 20.4685 120.653 20.4685C120.723 21.1281 120.723 21.7144 120.723 22.3008C120.793 22.9604 120.793 23.5468 120.863 24.1331C120.933 25.8922 121.003 27.578 121.074 29.2637C121.144 30.583 121.214 31.9023 121.284 33.2216C121.284 33.9545 121.354 34.6142 121.354 35.3471C121.354 35.6403 121.424 35.9334 121.495 36.2266C121.495 36.2999 121.495 36.2999 121.495 36.3732C121.495 36.6664 121.565 37.0328 121.565 37.326C121.565 37.3993 121.565 37.4726 121.565 37.5459C121.354 37.7658 121.354 37.9857 121.495 38.2788C121.495 38.3521 121.495 38.4254 121.495 38.4987C121.495 38.572 121.495 38.6453 121.424 38.7186C121.284 38.7919 121.214 38.7919 121.074 38.7919C121.003 38.8652 120.933 38.7919 120.933 38.7919C120.723 38.6453 120.582 38.3521 120.442 38.1323H120.512C120.582 38.059 120.653 38.059 120.723 37.9857C120.793 37.9124 120.723 37.8391 120.653 37.7658C120.512 37.6925 120.302 37.6192 120.161 37.6192C120.021 37.5459 119.951 37.4726 119.951 37.326C119.881 37.1061 119.811 36.8863 119.811 36.7397C119.74 36.3732 119.6 36.08 119.67 35.7136C119.67 35.567 119.6 35.4204 119.53 35.2738C119.46 35.2005 119.46 35.1272 119.46 35.0539C119.53 34.9073 119.53 34.7607 119.6 34.6874C119.6 34.6142 119.6 34.4676 119.6 34.3943C119.46 34.1011 119.46 33.7346 119.389 33.4415C119.389 33.1483 119.389 32.8551 119.46 32.6352C119.46 32.4153 119.53 32.1955 119.46 31.9756C119.389 31.9756 119.389 31.9023 119.389 31.829C119.53 31.4625 119.389 31.096 119.389 30.7296C119.389 30.5097 119.389 30.2898 119.319 30.1432C119.389 29.7768 119.319 29.4103 119.319 29.0438C119.249 28.6774 119.319 28.3842 119.319 28.0177C119.319 27.7978 119.319 27.6512 119.249 27.4314C119.249 27.2115 119.179 26.9183 119.249 26.6251C119.249 26.5518 119.249 26.5518 119.249 26.4785C119.179 26.0388 119.109 25.5257 119.179 25.086C119.179 25.0127 119.179 24.9394 119.179 24.9394C119.109 24.6462 119.109 24.353 119.109 24.1331C119.109 23.9866 119.109 23.84 119.039 23.7667C118.968 23.3269 118.968 22.8871 119.039 22.4474C119.039 22.3008 119.039 22.0809 118.968 21.9343C118.828 21.7144 118.828 21.4213 118.968 21.2014C119.109 20.9815 119.039 20.8349 118.898 20.615C118.898 20.5417 118.898 20.5417 118.828 20.4685C118.828 20.3952 118.828 20.2486 118.828 20.1753C118.898 20.102 118.898 20.0287 118.898 19.9554C118.898 19.5889 118.898 19.2225 118.898 18.9293C118.828 18.6361 118.898 18.4162 118.898 18.1231C118.898 17.9765 118.898 17.8299 118.968 17.6833C119.039 17.61 119.109 17.61 119.109 17.61C119.179 17.61 119.179 17.6833 119.179 17.6833C119.319 17.8299 119.46 17.9032 119.6 17.8299C119.67 17.8299 119.74 17.8299 119.811 17.8299C119.951 17.7566 120.021 17.6833 120.021 17.61C120.091 17.5367 120.161 17.3901 120.161 17.3168C120.161 17.2435 120.232 17.2435 120.232 17.2435C120.232 17.2435 120.302 17.2435 120.302 17.3168C120.302 17.3168 120.372 17.3168 120.372 17.3901C120.442 17.7566 120.653 18.1231 120.863 18.5628C120.933 18.6361 120.933 18.6361 121.074 18.5628C121.074 18.4895 121.074 18.4895 121.144 18.4895C121.214 18.7094 121.214 18.9293 121.214 19.1492C121.284 19.4423 121.354 19.6622 121.495 19.8088C121.565 19.9554 121.565 20.102 121.495 20.1753C121.424 20.3219 121.354 20.4685 121.354 20.615C121.354 20.9082 121.354 21.2014 121.354 21.5679C121.424 21.861 121.424 22.1542 121.424 22.4474C121.424 22.7406 121.424 22.9604 121.495 23.2536C121.565 23.4735 121.565 23.6934 121.565 23.9133C121.565 24.5729 121.635 25.3058 121.635 26.0388C121.635 26.1121 121.565 26.1854 121.635 26.2587C121.705 26.6984 121.705 27.1382 121.705 27.578C121.775 28.5308 121.775 29.4836 121.846 30.3631C121.916 30.7296 121.916 31.0961 121.916 31.3892C121.916 31.7557 121.916 32.1222 121.986 32.4886C121.986 32.7085 121.986 32.8551 121.986 33.075C121.986 34.0278 122.056 34.9806 122.126 36.0067C122.126 36.2266 122.126 36.3732 122.196 36.5931ZM119.109 8.59487C119.039 8.59487 118.968 8.59487 118.898 8.59487C118.618 8.44828 118.267 8.44828 117.986 8.44828C117.846 8.44828 117.705 8.37499 117.775 8.2284C117.775 8.08181 117.846 7.93522 117.916 7.86193C118.056 7.71534 118.197 7.64205 118.267 7.49546C118.337 7.49546 118.267 7.42217 118.196 7.34887C117.986 7.27558 117.635 7.27558 117.354 7.20228C117.284 7.20228 117.214 7.0557 117.284 6.9824C117.284 6.90911 117.284 6.90911 117.284 6.90911C117.284 6.61594 117.425 6.39605 117.635 6.24947C117.775 6.17617 117.916 6.02959 118.056 5.95629C118.337 5.66312 118.688 5.66312 119.039 5.8097C119.179 5.95629 119.389 6.02959 119.6 6.02959C119.81 6.02959 120.021 6.17617 120.232 6.32276C120.302 6.46935 120.372 6.54264 120.512 6.68923C120.512 6.76252 120.512 6.83582 120.512 6.83582C120.512 6.9824 120.442 7.12899 120.372 7.20228C120.161 7.34887 119.951 7.42217 119.74 7.49546C119.67 7.49546 119.6 7.56875 119.67 7.71534C119.67 7.78864 119.74 7.93522 119.881 7.93522C119.881 8.00852 119.951 8.00852 120.021 8.08181C120.021 8.1551 120.021 8.30169 119.951 8.30169C119.881 8.37499 119.81 8.44828 119.74 8.52157C119.6 8.52157 119.389 8.59487 119.249 8.59487C119.179 8.59487 119.109 8.59487 119.109 8.59487ZM148.354 36.8863C148.424 36.8863 148.424 36.9595 148.494 36.9595C148.494 37.0328 148.424 37.1061 148.424 37.1794C148.354 37.1794 148.284 37.2527 148.143 37.326C147.231 37.4726 146.248 37.7658 145.266 37.8391C144.494 37.9857 143.792 37.9857 143.09 38.1323C142.81 38.1323 142.599 38.1323 142.389 38.1323C142.108 38.1323 141.828 38.2055 141.617 38.2788C141.477 38.2788 141.266 38.3521 141.126 38.3521C140.775 38.2788 140.424 38.3521 140.003 38.3521C139.582 38.3521 139.161 38.3521 138.74 38.4254C138.529 38.4987 138.389 38.4987 138.178 38.4987C137.336 38.4987 136.494 38.4987 135.652 38.4987C135.161 38.4987 134.67 38.4987 134.249 38.4987C133.758 38.4987 133.336 38.4987 132.915 38.4254C132.565 38.3521 132.214 38.3521 131.863 38.3521C130.67 38.4254 130.81 38.3521 129.687 37.9124C129.547 37.8391 129.407 37.7658 129.266 37.6925C128.916 37.3993 128.705 37.0328 128.635 36.6664C128.565 36.3732 128.495 36.0067 128.565 35.7136C128.635 35.2738 128.705 34.834 128.916 34.3943C129.056 34.1011 129.266 33.8079 129.477 33.4415C129.547 33.3682 129.617 33.2216 129.758 33.1483C129.828 33.0017 129.968 32.8551 130.108 32.7085C130.179 32.6352 130.249 32.5619 130.249 32.4153C130.319 32.1955 130.53 32.0489 130.67 31.9023C130.951 31.6824 131.161 31.3892 131.372 31.2426C131.652 31.0228 131.863 30.8029 132.003 30.583C132.284 30.3631 132.424 29.9966 132.705 29.7768C132.986 29.5569 133.196 29.2637 133.477 28.9705C134.88 27.3581 136.354 25.7456 137.757 24.1331C138.249 23.4735 138.74 22.8139 139.301 22.2275C139.512 22.0809 139.582 21.861 139.792 21.7144C139.933 21.4946 140.073 21.2747 140.214 21.0548C140.354 20.8349 140.494 20.615 140.635 20.4685C140.705 20.3219 140.775 20.1753 140.915 20.102C140.985 20.102 141.056 20.102 141.056 20.0287C141.126 19.8088 141.406 19.7355 141.477 19.5889C141.547 19.5156 141.617 19.369 141.617 19.2958C141.617 19.0759 141.687 18.9293 141.828 18.7827C141.898 18.6361 141.968 18.4895 142.038 18.4162C142.178 18.2696 142.249 18.2696 142.319 18.1963C142.459 18.0498 142.529 17.8299 142.74 17.8299V17.7566C142.74 17.6833 142.74 17.61 142.74 17.61C142.74 17.5367 142.74 17.4634 142.74 17.3901C142.95 17.1702 143.02 16.8038 143.161 16.5106C143.301 16.2907 143.371 15.9975 143.582 15.8509C143.652 15.7044 143.722 15.5578 143.792 15.4112C143.863 15.118 143.933 14.7515 144.003 14.4584C144.003 14.3118 144.003 14.1652 143.933 14.0919C143.863 14.0186 143.722 13.9453 143.652 13.7987C143.442 13.359 143.09 13.1391 142.599 12.9925C141.757 12.626 140.915 12.5527 140.003 12.5527C138.95 12.4794 137.898 12.5527 136.845 12.626C135.652 12.6993 134.529 12.8459 133.336 12.9925C132.635 13.1391 131.863 13.2124 131.091 13.359C130.319 13.5055 129.547 13.6521 128.775 13.7987C128.494 13.872 128.214 13.872 127.863 13.872C127.793 13.872 127.652 13.872 127.582 13.7987C127.512 13.7987 127.442 13.7987 127.442 13.7254C127.442 13.6521 127.512 13.5788 127.512 13.5788C127.723 13.5055 127.863 13.4323 128.073 13.4323C129.407 13.1391 130.74 12.8459 132.073 12.626C132.705 12.5527 133.266 12.4794 133.827 12.4061C134.6 12.3328 135.301 12.2596 136.003 12.1863C136.354 12.1863 136.705 12.1863 136.986 12.1863C138.178 11.9664 139.371 12.0397 140.494 12.0397C141.336 12.113 142.178 12.1863 143.02 12.3328C143.161 12.3328 143.231 12.3328 143.301 12.3328H143.371V12.2596C143.231 11.9664 143.02 11.8198 142.88 11.7465C142.389 11.5266 141.898 11.38 141.406 11.3067C140.564 11.1601 139.792 11.1601 139.021 11.2334C138.67 11.2334 138.389 11.2334 138.038 11.2334C137.687 11.3067 137.266 11.3067 136.915 11.3067C135.933 11.38 134.95 11.5266 134.038 11.6732C133.056 11.7465 132.073 11.8931 131.091 12.0397C130.67 12.113 130.319 12.1863 129.968 12.2596C129.687 12.3328 129.407 12.3328 129.126 12.4061C128.916 12.4061 128.635 12.4794 128.354 12.5527C127.933 12.626 127.442 12.7726 126.88 12.7726C126.81 12.7726 126.74 12.6993 126.81 12.626C126.81 12.5527 126.81 12.5527 126.81 12.4794C126.81 12.4061 126.88 12.2596 127.021 12.2596C128.003 12.0397 129.056 11.7465 130.108 11.6732C130.249 11.6732 130.459 11.5999 130.6 11.5999C131.091 11.5266 131.512 11.38 132.003 11.3067C132.635 11.2334 133.266 11.1601 133.898 11.0869C134.74 10.9403 135.512 10.9403 136.284 10.7937C136.705 10.7937 137.126 10.7204 137.617 10.7204C138.178 10.7204 138.74 10.6471 139.301 10.6471C139.442 10.6471 139.582 10.6471 139.722 10.6471C140.564 10.7204 141.406 10.7204 142.249 10.7937C142.95 10.867 143.582 11.0136 144.213 11.2334C144.424 11.3067 144.634 11.38 144.775 11.5266C144.845 11.5999 144.985 11.6732 145.126 11.7465C145.547 11.9664 145.827 12.4061 145.898 12.9192C145.968 13.0658 145.968 13.2124 145.968 13.359C146.108 13.5788 146.108 13.7987 145.968 14.0186C145.827 14.8248 145.547 15.5578 145.266 16.2907C145.126 16.8771 144.845 17.3901 144.494 17.8299C144.143 18.4895 143.722 19.0759 143.301 19.6622C143.02 20.102 142.67 20.4685 142.389 20.9082C142.108 21.2747 141.757 21.7144 141.477 22.1542C140.985 22.8139 140.424 23.4002 139.863 24.0598C139.652 24.4263 139.371 24.6462 139.161 25.0127C138.95 25.2326 138.74 25.5257 138.6 25.8189C138.6 26.0388 138.389 26.0388 138.249 26.1121C138.108 26.1121 138.038 26.332 138.108 26.4785C138.108 26.5518 138.178 26.6251 138.178 26.6984C138.178 26.7717 138.178 26.845 138.108 26.845C137.968 26.7717 137.898 26.7717 137.757 26.845C137.477 26.9183 137.477 26.9183 137.617 27.2115C137.617 27.2848 137.687 27.3581 137.617 27.3581C137.407 27.6512 137.266 27.9444 137.126 28.2376C137.126 28.3109 136.986 28.3109 136.915 28.3109C136.915 28.3109 136.915 28.3109 136.915 28.3842C136.635 28.7507 136.284 29.1171 135.933 29.337C135.722 29.337 135.722 29.4836 135.722 29.6302C135.722 29.7035 135.722 29.7768 135.652 29.8501C135.652 29.8501 135.582 29.9234 135.512 29.9234C135.372 29.9966 135.301 30.1432 135.231 30.2898C135.231 30.5097 135.091 30.583 134.95 30.6563C134.81 30.7296 134.74 30.8029 134.67 30.8762C134.67 31.096 134.529 31.2426 134.389 31.3159C134.319 31.3892 134.249 31.4625 134.249 31.5358C134.179 31.7557 134.038 31.829 133.827 31.9023C133.687 31.9756 133.617 32.1222 133.617 32.2688C133.547 32.4886 133.477 32.5619 133.266 32.7085C133.126 32.7818 133.056 32.8551 132.986 33.0017C132.915 33.1483 132.845 33.2949 132.775 33.3682C132.424 33.6613 132.144 33.9545 132.003 34.3943C132.003 34.5409 131.933 34.6142 131.793 34.6874C131.582 34.9806 131.512 35.2738 131.372 35.567C131.301 35.7136 131.442 36.0067 131.582 36.0067C131.652 36.08 131.722 36.08 131.722 36.08C132.214 36.1533 132.705 36.2999 133.126 36.2999C134.038 36.2999 134.88 36.2999 135.793 36.3732C136.214 36.2999 136.564 36.3732 136.986 36.2999C137.407 36.2999 137.757 36.2999 138.108 36.2999C138.529 36.2999 138.95 36.2266 139.371 36.2266C139.512 36.2266 139.582 36.1533 139.722 36.1533C140.003 36.2266 140.214 36.2266 140.494 36.1533C140.564 36.08 140.705 36.08 140.775 36.08C141.126 36.1533 141.477 36.08 141.828 36.0067C142.038 36.0067 142.249 35.9334 142.529 36.08C142.529 36.08 142.599 36.08 142.67 36.08C142.88 35.9334 143.09 35.9334 143.371 35.8601C143.512 35.8601 143.652 35.8601 143.792 35.8601C143.863 35.7869 144.003 35.7869 144.143 35.7869C144.705 35.7869 145.336 35.567 145.898 35.4937C146.108 35.4204 146.178 35.4937 146.319 35.567L146.248 35.6403C145.968 35.7136 145.757 35.7869 145.547 35.8601C144.915 35.9334 144.284 36.08 143.652 36.1533C143.161 36.2266 142.67 36.2266 142.178 36.2999C141.617 36.4465 141.126 36.4465 140.564 36.5198C140.214 36.5198 139.863 36.5198 139.512 36.5931C139.442 36.6664 139.301 36.6664 139.161 36.6664C138.74 36.6664 138.249 36.6664 137.757 36.6664C137.547 36.7397 137.266 36.7397 136.986 36.7397C136.073 36.7397 135.091 36.7397 134.179 36.7397C133.547 36.7397 132.915 36.7397 132.214 36.6664C132.144 36.6664 132.003 36.6664 131.863 36.6664C131.863 36.7397 131.863 36.7397 131.863 36.7397C131.863 36.7397 131.863 36.813 131.933 36.813C131.933 36.813 131.933 36.813 132.003 36.813C133.196 36.8863 134.389 37.0328 135.582 36.9595C136.073 36.9595 136.494 36.9596 136.986 36.8863C137.196 36.8863 137.407 36.9595 137.617 36.9595C137.757 37.0328 137.968 37.0328 138.108 36.9595C138.178 36.8863 138.249 36.8863 138.319 36.8863C138.529 37.0328 138.81 36.9596 139.091 36.8863C139.301 36.813 139.512 36.813 139.792 36.813C140.214 36.813 140.635 36.7397 141.056 36.813C141.126 36.813 141.126 36.813 141.126 36.813C141.687 36.6664 142.178 36.7397 142.74 36.6664C143.231 36.5931 143.722 36.5198 144.213 36.4465C144.985 36.2999 145.687 36.2266 146.459 36.0067C146.67 35.9334 146.88 35.9334 147.091 35.8601C147.091 35.8601 147.161 35.9334 147.231 35.9334C147.301 36.0067 147.371 36.1533 147.512 36.2266C147.441 36.2999 147.441 36.3732 147.371 36.4465C147.091 36.5198 146.88 36.6664 146.599 36.7397C146.529 36.7397 146.459 36.813 146.389 36.8863C146.81 36.813 147.231 36.813 147.582 36.7397C147.862 36.7397 148.143 36.7397 148.354 36.8863ZM129.337 34.7607C129.547 34.6142 129.547 34.321 129.687 34.1744C129.617 34.1744 129.477 34.1744 129.407 34.2477C129.337 34.3943 129.266 34.5409 129.266 34.6874V34.7607C129.337 34.7607 129.337 34.7607 129.337 34.7607ZM129.687 34.1011C129.687 34.1011 129.687 34.0278 129.758 34.0278L129.687 33.9545C129.687 34.0278 129.687 34.1011 129.687 34.1011ZM140.284 37.6925C140.354 37.6925 140.354 37.6925 140.284 37.6192C140.284 37.6192 140.214 37.6192 140.143 37.6192V37.6925C140.143 37.6925 140.143 37.6925 140.214 37.6925H140.284ZM142.038 37.4726C142.249 37.4726 142.389 37.4726 142.389 37.4726C142.389 37.4726 142.249 37.3993 142.038 37.4726ZM143.933 37.326C144.003 37.326 144.073 37.3993 144.073 37.2527C144.073 37.2527 144.003 37.2527 143.933 37.2527C143.933 37.2527 143.933 37.2527 143.863 37.2527H143.792C143.863 37.326 143.863 37.326 143.933 37.326ZM144.845 37.1061C144.845 37.1061 144.845 37.1794 144.985 37.1794C145.056 37.1794 145.056 37.1794 145.056 37.1061C145.126 37.1061 145.056 37.0328 144.985 37.1061C144.915 37.1061 144.915 37.1061 144.845 37.1061ZM145.898 36.8863C145.968 36.9596 145.968 36.9595 146.038 36.9595C146.178 36.9595 146.248 36.9596 146.389 36.8863C146.248 36.8863 146.108 36.8863 145.968 36.8863H145.898ZM133.968 38.7186C133.968 38.7186 134.038 38.7186 134.108 38.7186C134.179 38.7186 134.179 38.7919 134.249 38.7919C134.179 38.8652 134.249 38.7919 134.108 38.7919C134.108 38.7919 134.038 38.7919 133.968 38.7919C133.898 38.7919 133.898 38.7919 133.827 38.7919C133.827 38.7186 133.898 38.7186 133.968 38.7186ZM135.582 38.7919L135.652 38.7186C135.793 38.7186 135.933 38.7186 136.073 38.7919C135.933 38.7919 135.793 38.7919 135.652 38.7919C135.652 38.7919 135.652 38.7919 135.582 38.7919ZM137.056 38.7186C137.126 38.7186 137.196 38.7186 137.196 38.7919C137.196 38.7919 137.126 38.8652 137.056 38.7919C136.986 38.7919 136.986 38.7919 136.915 38.7919C136.915 38.7186 136.986 38.7186 137.056 38.7186ZM173.93 42.4566C174 42.5299 174 42.7498 174 42.8963C174 42.9696 173.86 43.0429 173.789 42.9696C173.719 42.9696 173.719 42.9696 173.649 42.8963C173.579 42.8231 173.439 42.7498 173.368 42.7498C173.158 42.7498 172.947 42.7498 172.737 42.7498C172.526 42.7498 172.316 42.7498 172.175 42.8963C172.105 42.9696 171.965 42.8963 171.825 42.8231C171.684 42.6765 171.614 42.4566 171.544 42.1634C171.544 42.0168 171.544 41.7969 171.544 41.6504C171.474 41.5038 171.404 41.3572 171.404 41.2106C171.404 40.7708 171.333 40.3311 171.263 39.8913C171.193 39.6714 171.263 39.4515 171.193 39.2317C171.193 39.0118 171.123 38.7919 171.193 38.572C171.193 38.4987 171.193 38.3521 171.123 38.2788C170.983 38.059 171.053 37.6925 171.053 37.3993C171.053 37.326 170.983 37.1794 170.983 37.0328C170.912 36.8863 170.912 36.7397 170.983 36.5198C170.983 36.3732 170.983 36.2999 170.912 36.1533C170.842 36.08 170.842 35.9334 170.912 35.7869C170.983 35.4937 170.983 35.2005 170.842 34.9073C170.842 34.834 170.842 34.834 170.842 34.7607C170.842 34.2477 170.702 33.7346 170.632 33.2216C170.632 33.075 170.632 33.0017 170.632 32.9284C170.632 32.5619 170.702 32.1955 170.632 31.829C170.561 31.4625 170.561 31.096 170.491 30.7296C170.491 30.583 170.491 30.4364 170.561 30.2898C170.561 30.0699 170.632 29.9234 170.561 29.7768C170.491 29.4836 170.421 29.1904 170.491 28.8972C170.491 28.6774 170.421 28.4575 170.491 28.1643C170.491 27.9444 170.491 27.7245 170.491 27.5047C170.421 27.4314 170.421 27.3581 170.421 27.2848C170.491 26.9916 170.421 26.6251 170.351 26.332C170.351 26.1121 170.421 26.0388 170.491 25.8922C170.561 25.7456 170.561 25.599 170.491 25.4524C170.491 25.3058 170.421 25.1593 170.421 25.0127C170.491 24.7195 170.491 24.4263 170.421 24.1331C170.421 23.9866 170.491 23.84 170.491 23.6934C170.491 23.5468 170.491 23.4002 170.421 23.2536C170.281 22.9604 170.281 22.6673 170.421 22.3741C170.421 22.3008 170.421 22.2275 170.421 22.1542C170.491 22.0809 170.421 21.9343 170.421 21.861C170.351 21.7877 170.351 21.6412 170.351 21.5679C170.421 21.4213 170.421 21.2747 170.421 21.1281C170.281 20.6883 170.421 20.1753 170.281 19.7355C170.281 19.4423 170.281 19.0759 170.351 18.7827C170.421 18.5628 170.421 18.4162 170.281 18.2696C170.211 18.1963 170.211 18.1231 170.211 18.0498C170.211 17.9032 170.281 17.6833 170.281 17.5367C170.281 17.4634 170.281 17.3901 170.281 17.3901C170.14 17.1702 170.14 17.0236 170.211 16.8038C170.211 16.7305 170.281 16.6572 170.281 16.5839C170.281 16.5106 170.211 16.4373 170.211 16.2907C170.14 16.2174 170.14 16.2174 170.07 16.2174C170 16.2174 170 16.2907 170 16.2907C170 16.364 170 16.5106 169.93 16.6572C169.79 16.9504 169.719 17.1702 169.79 17.5367C169.79 17.6833 169.719 17.8299 169.579 17.9032C169.509 18.0498 169.509 18.1963 169.509 18.3429C169.579 18.4162 169.579 18.4895 169.509 18.5628C169.439 18.7094 169.439 18.856 169.369 19.0759C169.158 19.5889 169.018 20.1753 168.947 20.7616C168.947 20.9082 168.877 21.0548 168.807 21.2014C168.737 21.4213 168.597 21.7144 168.526 21.9343C168.386 22.1542 168.316 22.3741 168.316 22.6673C168.316 22.8139 168.246 23.0337 168.105 23.107C167.965 23.3269 167.895 23.4735 167.895 23.6934C167.895 23.9866 167.684 24.2797 167.755 24.4996C167.825 24.7195 167.965 24.9394 168.035 25.1593C168.105 25.3058 168.176 25.3791 168.246 25.5257C168.246 25.5257 168.246 25.599 168.246 25.6723C168.176 26.0388 168.386 26.332 168.526 26.6251C168.737 26.845 168.737 27.1382 168.737 27.5047C168.737 27.578 168.667 27.6512 168.597 27.6512H168.526C168.316 27.7245 168.176 27.7245 167.965 27.7245C167.614 27.7245 167.263 27.578 167.123 27.2848C167.053 27.1382 166.912 27.0649 166.842 26.9916C166.842 26.9183 166.632 26.9183 166.632 26.9916C166.562 27.0649 166.562 27.1382 166.491 27.1382C166.421 27.3581 166.351 27.578 166.281 27.7245C166.211 27.8711 166.141 27.9444 166.07 28.0177C165.93 28.5308 165.719 28.9705 165.439 29.337C165.298 29.7035 165.088 29.9966 164.807 30.2165C164.807 30.2898 164.737 30.3631 164.667 30.4364C164.667 30.7296 164.527 30.8762 164.316 31.096C164.176 31.2426 163.965 31.4625 163.895 31.7557C163.895 31.829 163.825 31.9023 163.755 31.9756C163.474 32.2687 163.404 32.7085 163.053 33.0017C162.983 33.075 162.983 33.1483 162.913 33.2216C162.842 33.3682 162.772 33.4415 162.702 33.5147C162.491 33.6613 162.351 33.9545 162.141 34.1011C161.93 34.2477 161.86 34.4676 161.72 34.6874C161.579 34.834 161.439 34.9806 161.299 35.1272C161.228 35.2738 161.158 35.2738 161.018 35.3471C160.878 35.4204 160.737 35.4937 160.667 35.6403C160.597 35.7869 160.456 35.9334 160.246 36.08C160.106 36.1533 159.965 36.2999 159.825 36.3732C159.755 36.4465 159.755 36.5198 159.685 36.5931C159.685 36.7397 159.685 36.813 159.685 36.8863C159.685 37.0328 159.614 37.1061 159.474 37.1794C159.474 37.1794 159.404 37.2527 159.334 37.2527C159.334 37.3993 159.264 37.4726 159.193 37.5459C158.983 37.6192 158.913 37.7658 158.842 37.9124C158.772 38.059 158.702 38.2055 158.562 38.2055C158.281 38.2788 158.141 38.4254 157.93 38.6453C157.65 38.9385 157.369 39.0851 156.948 39.2317C156.878 39.2317 156.737 39.2317 156.667 39.305C155.965 39.6714 155.264 39.818 154.492 39.818C153.86 39.818 153.158 39.6714 152.527 39.3782C152.386 39.2317 152.246 39.0851 152.036 39.0118C151.895 38.8652 151.685 38.7919 151.544 38.7186C151.334 38.572 151.264 38.4254 151.194 38.2788C151.194 38.1323 151.123 37.9857 150.983 37.8391C150.843 37.6925 150.702 37.5459 150.562 37.3993C150.492 37.2527 150.351 37.1061 150.351 36.8863C150.351 36.813 150.351 36.7397 150.281 36.7397C149.93 36.3732 149.86 35.9334 149.58 35.567C149.58 35.4937 149.439 35.4204 149.439 35.3471C149.439 35.0539 149.229 34.9073 149.229 34.6874C149.158 34.321 148.948 34.0278 148.878 33.7346C148.808 33.2949 148.878 32.8551 148.808 32.4153C148.808 32.1955 148.808 32.0489 148.808 31.829C148.737 31.6091 148.737 31.4625 148.808 31.2426C148.808 31.1693 148.808 31.0228 148.808 30.8762C148.808 30.8029 148.808 30.6563 148.878 30.583C148.948 30.4364 149.018 30.2898 148.948 30.2165C148.948 29.9966 148.948 29.7768 149.088 29.6302C149.158 29.5569 149.158 29.4103 149.158 29.337C149.088 29.1904 149.158 28.9705 149.299 28.8239C149.58 28.4575 149.79 28.091 149.86 27.6512C149.86 27.578 149.86 27.5047 149.93 27.4314C149.93 27.2848 149.93 27.1382 150.001 26.9916C150.071 26.9183 150.141 26.845 150.211 26.6984C150.281 26.4785 150.422 26.2587 150.492 26.0388C150.562 25.8922 150.562 25.7456 150.702 25.599C150.772 25.5257 150.843 25.3791 150.983 25.3058C151.123 25.2325 151.194 25.086 151.264 24.8661C151.334 24.6462 151.544 24.4996 151.544 24.2064C151.825 24.1331 151.825 23.84 152.036 23.6934C152.106 23.6201 152.246 23.4735 152.316 23.4002C152.457 23.2536 152.527 23.1803 152.597 23.107C152.667 22.8139 152.878 22.6673 153.158 22.594C153.299 22.5207 153.369 22.3741 153.439 22.2275C153.579 22.0809 153.65 21.9343 153.86 21.9343C153.93 21.861 153.93 21.861 154 21.7877C154.351 21.4946 154.772 21.2747 155.193 21.1281C155.614 20.9082 155.965 20.8349 156.316 20.5417C156.527 20.4685 156.667 20.3219 156.878 20.3952C157.158 20.3952 157.369 20.3219 157.579 20.2486C157.79 20.102 158 20.102 158.281 20.0287C158.983 19.9554 159.685 19.9554 160.386 20.0287C160.597 20.0287 160.807 20.102 161.018 20.102C161.72 20.0287 162.351 20.1753 163.053 20.3952C163.544 20.4685 163.965 20.6883 164.386 20.9082C164.527 20.9815 164.667 21.0548 164.807 21.2014C165.018 21.348 165.298 21.4946 165.509 21.7144C165.719 21.861 165.93 22.0809 166.141 22.2275C166.141 22.3008 166.281 22.3008 166.351 22.3008C166.491 22.3008 166.562 22.1542 166.562 22.0809C166.632 21.9343 166.632 21.7877 166.632 21.7144C166.632 21.4213 166.702 21.2014 166.912 21.0548C167.053 20.9815 167.053 20.9082 166.983 20.7616C166.983 20.6883 166.983 20.5417 167.053 20.4685C167.193 20.3219 167.263 20.102 167.263 19.8088C167.333 19.5889 167.404 19.4423 167.544 19.2958C167.614 19.1492 167.684 19.0759 167.684 18.9293C167.684 18.7094 167.684 18.4895 167.825 18.3429C167.895 18.1231 167.825 17.8299 167.965 17.61C168.105 17.4634 168.105 17.1702 168.176 17.0236C168.246 16.6572 168.386 16.364 168.456 15.9975C168.456 15.9242 168.526 15.8509 168.597 15.7044C168.737 15.5578 168.807 15.2646 168.807 15.0447C168.807 14.8248 168.807 14.6782 168.877 14.5317C169.018 14.3118 169.088 14.0186 169.088 13.7254C169.158 13.4323 169.298 13.0658 169.369 12.7726C169.369 12.626 169.509 12.5527 169.509 12.3328C169.579 12.2596 169.579 12.113 169.579 11.9664C169.649 11.6732 169.719 11.38 169.79 11.0136C169.86 10.9403 169.93 10.867 169.93 10.7937C170 10.7204 170.07 10.6471 170 10.5738C170 10.5005 170 10.3539 170 10.2806C170.07 10.134 170.14 9.91415 170.211 9.76757C170.281 9.62098 170.281 9.47439 170.281 9.3278C170.351 9.10792 170.351 8.88804 170.351 8.66816C170.351 8.44828 170.421 8.30169 170.491 8.08181C170.561 7.86193 170.491 7.64205 170.561 7.42217C170.632 7.27558 170.632 7.0557 170.632 6.90911C170.632 6.46935 170.702 5.95629 170.772 5.51653C170.772 5.36994 170.842 5.22335 170.842 5.07677C170.842 4.85689 170.842 4.56371 170.912 4.27054C170.983 4.27054 170.983 4.19724 170.983 4.12395C170.912 3.75748 171.053 3.39101 171.053 3.02454C171.123 2.51149 171.263 1.99843 171.263 1.48537C171.333 1.26549 171.474 1.04561 171.404 0.752428C171.404 0.752428 171.474 0.679141 171.474 0.605845C171.544 0.45926 171.614 0.385963 171.754 0.239377C171.895 0.0927914 172.105 -0.0537984 172.386 0.0194946C172.526 0.0194946 172.597 0.0194946 172.737 0.0927914C172.807 0.0927914 172.947 0.166084 172.947 0.31267C173.018 0.45926 173.018 0.532553 173.088 0.679142C173.088 0.679142 173.158 0.679141 173.158 0.752428C173.228 0.752428 173.228 0.679141 173.228 0.605845C173.298 0.45926 173.298 0.239377 173.439 0.0927914C173.439 0.0927914 173.509 0.0194946 173.579 0.0927914H173.649C173.649 0.239377 173.649 0.385963 173.719 0.45926C173.719 0.679141 173.719 0.825729 173.789 1.04561C173.789 1.1189 173.789 1.1922 173.789 1.26549C173.649 1.77855 173.649 2.2916 173.579 2.80466C173.579 3.17113 173.509 3.4643 173.439 3.75748C173.368 4.05065 173.298 4.34383 173.298 4.637C173.228 4.78359 173.228 4.93018 173.158 5.07677C172.947 5.883 172.877 6.68923 172.807 7.49546C172.737 8.00852 172.737 8.52157 172.737 9.10792C172.667 9.47439 172.667 9.91415 172.597 10.3539C172.597 10.6471 172.597 11.0136 172.597 11.38C172.597 12.113 172.597 12.8459 172.526 13.5788C172.526 14.1652 172.526 14.7515 172.526 15.3379C172.526 15.8509 172.526 16.364 172.526 16.8771C172.597 18.2696 172.597 19.7355 172.597 21.2014C172.597 21.2747 172.597 21.348 172.597 21.4213C172.737 22.3008 172.667 23.2536 172.737 24.1331C172.737 24.7195 172.737 25.3058 172.807 25.8189C172.807 26.4785 172.807 27.0649 172.877 27.6512C172.947 28.091 172.877 28.4575 172.877 28.8972C172.947 29.4836 172.947 30.1432 172.947 30.8029C172.947 31.1693 173.018 31.4625 173.018 31.829C173.088 32.7818 173.158 33.7346 173.158 34.7607C173.158 34.834 173.158 34.9806 173.158 35.1272C173.298 35.7136 173.228 36.3732 173.298 37.0328C173.298 37.326 173.298 37.5459 173.298 37.8391C173.368 38.2055 173.368 38.572 173.439 38.9385C173.439 39.305 173.509 39.7447 173.509 40.1112C173.509 40.3311 173.509 40.5509 173.579 40.7708C173.649 40.9174 173.649 41.064 173.649 41.2106C173.579 41.6503 173.719 42.0901 173.93 42.4566ZM159.685 20.615C158.562 20.7616 157.439 21.2014 156.457 21.861C156.457 21.861 156.457 21.861 156.457 21.9343C156.597 21.9343 156.737 21.9343 156.948 21.861C157.65 21.6412 158.421 21.4213 159.123 21.348C160.035 21.348 160.948 21.348 161.86 21.4213C162.07 21.4946 162.351 21.4946 162.562 21.4946C162.772 21.5679 162.983 21.6412 163.263 21.6412H163.334C163.334 21.5679 163.263 21.5679 163.263 21.5679C162.983 21.348 162.702 21.1281 162.351 20.9815C161.509 20.615 160.667 20.4685 159.685 20.615ZM156.386 21.9343C156.316 21.9343 156.316 21.9343 156.316 22.0076C156.316 22.0076 156.386 22.0076 156.386 21.9343ZM157.79 38.059C157.86 38.059 157.86 37.9857 157.86 37.9857C157.79 37.9124 157.79 37.9124 157.79 37.9124C157.579 37.8391 157.439 37.9857 157.299 38.059C156.527 38.3521 155.685 38.572 154.913 38.4987C154.492 38.4987 154.141 38.4987 153.79 38.4987C153.579 38.4987 153.439 38.4987 153.299 38.4987C153.299 38.4254 153.299 38.4254 153.299 38.4254C153.158 38.4254 152.948 38.4254 152.808 38.4254H152.737C152.737 38.4987 152.737 38.4987 152.737 38.4987C152.878 38.6453 153.018 38.7186 153.158 38.8652C153.369 39.0118 153.579 39.1584 153.86 39.2317C154.141 39.3782 154.422 39.4515 154.702 39.3782C155.264 39.305 155.755 39.0851 156.316 38.9385C156.386 38.8652 156.457 38.7919 156.527 38.7919C156.667 38.7186 156.737 38.572 156.878 38.4987C157.088 38.3521 157.299 38.2055 157.579 38.2055C157.65 38.1322 157.72 38.059 157.79 38.059ZM159.404 36.9595C159.404 36.8863 159.334 36.8863 159.334 36.9595C159.334 37.0328 159.334 37.0328 159.334 37.0328C159.334 37.1061 159.334 37.1061 159.334 37.1061C159.334 37.1061 159.404 37.0328 159.404 36.9595ZM165.369 25.1593C165.369 25.086 165.369 25.0127 165.369 24.9394C165.298 24.7928 165.228 24.7195 165.228 24.5729C165.158 24.4263 165.088 24.2797 164.877 24.2064C164.807 24.0598 164.737 23.9133 164.597 23.84C164.456 23.7667 164.386 23.5468 164.246 23.4735C164.105 23.3269 163.895 23.1803 163.755 23.107C163.263 22.7406 162.772 22.5207 162.281 22.2275C162.211 22.1542 162.141 22.1542 162.07 22.0809C161.439 21.9343 160.737 21.7877 160.106 21.7877C159.965 21.7877 159.895 21.7877 159.825 21.861C159.474 21.9343 159.123 22.0076 158.772 22.0809C158.351 22.1542 157.86 22.3008 157.439 22.4474C157.158 22.5207 156.948 22.6673 156.737 22.8139C156.386 23.107 156.036 23.3269 155.614 23.6201C155.474 23.6934 155.264 23.84 155.123 23.9133C155.053 23.9866 154.983 24.0598 154.913 24.1331C154.843 24.2797 154.632 24.353 154.492 24.5729C154.351 24.7195 154.211 24.8661 154 24.9394C153.93 24.9394 153.86 25.0127 153.86 25.086C153.65 25.4524 153.439 25.7456 153.229 26.0388C152.878 26.4053 152.597 26.845 152.316 27.2848C152.246 27.3581 152.176 27.4314 152.176 27.578C152.106 27.7245 152.036 27.9444 152.036 28.091C151.965 28.1643 151.965 28.3109 151.895 28.3109C151.685 28.4575 151.615 28.6774 151.615 28.8972C151.474 29.337 151.404 29.8501 151.264 30.2898C151.194 30.3631 151.194 30.4364 151.194 30.4364C151.194 30.8762 150.983 31.3159 151.053 31.7557C151.123 31.829 151.053 32.0489 151.053 32.0489C151.053 32.342 151.053 32.5619 151.053 32.7085C151.194 33.1483 151.194 33.5147 151.334 33.9545C151.334 34.0278 151.404 34.1011 151.404 34.1744C151.474 34.321 151.544 34.3943 151.544 34.5409C151.474 34.7607 151.544 34.9073 151.685 35.0539C151.825 35.2738 151.965 35.567 151.965 35.7869C151.965 35.9334 152.036 36.08 152.106 36.1533C152.316 36.2266 152.457 36.4465 152.597 36.5931C152.737 36.7397 152.808 36.8863 152.948 37.0328C153.018 37.1794 153.229 37.2527 153.369 37.3993C153.579 37.6925 153.93 37.7658 154.281 37.9124C154.351 37.9857 154.422 37.9857 154.492 37.9857C154.772 37.9857 154.983 37.9857 155.193 37.9124C155.755 37.7658 156.386 37.4726 156.807 37.1061C157.299 36.813 157.79 36.4465 158.141 36.0067C158.492 35.7869 158.702 35.4937 158.983 35.2738C159.053 35.1272 159.264 35.0539 159.404 34.9806C159.544 34.834 159.544 34.6141 159.685 34.5409C159.755 34.3943 159.825 34.321 159.895 34.2477C160.035 34.1744 160.106 34.1011 160.176 33.9545C160.807 33.075 161.509 32.1955 162.211 31.3159C162.211 31.2426 162.281 31.1693 162.351 31.096C162.351 30.8762 162.562 30.6563 162.702 30.5097C162.842 30.2898 162.913 29.9966 163.053 29.7768C163.053 29.7035 163.123 29.6302 163.123 29.6302C163.334 29.4103 163.474 29.1904 163.544 28.8972C163.614 28.8239 163.684 28.6774 163.755 28.6041C163.965 28.3842 164.035 28.091 164.176 27.7978C164.456 27.4314 164.597 26.9916 164.807 26.4785C164.807 26.332 164.948 26.1854 165.018 26.0388C165.158 25.7456 165.228 25.4524 165.369 25.1593ZM172.316 10.867C172.316 10.7204 172.316 10.6471 172.246 10.5005C172.246 10.4272 172.175 10.3539 172.175 10.4272C172.105 10.4272 172.105 10.4272 172.105 10.4272C171.965 10.7204 171.895 10.9403 171.895 11.2334C171.825 11.6732 171.825 12.113 171.825 12.5527C171.754 13.7254 171.754 14.8981 171.825 16.0708C171.825 16.1441 171.825 16.2174 171.825 16.2907C171.754 16.6572 171.895 17.0236 171.965 17.3901C171.965 17.4634 171.965 17.4634 172.035 17.4634C172.105 17.4634 172.105 17.4634 172.105 17.3901C172.175 16.6572 172.246 15.9242 172.175 15.1913C172.175 14.7515 172.175 14.3851 172.246 13.7987C172.246 13.7987 172.246 13.5788 172.246 13.4323C172.246 12.5527 172.246 11.7465 172.316 10.867ZM172.246 8.44828C172.246 8.1551 172.316 7.93522 172.386 7.64205C172.456 7.0557 172.526 6.54264 172.526 5.95629C172.526 5.883 172.526 5.8097 172.526 5.8097C172.456 5.883 172.456 5.883 172.456 5.95629C172.175 6.90911 171.965 7.86193 172.035 8.81475C172.175 8.74145 172.246 8.59487 172.246 8.44828ZM160.316 36.3732C160.316 36.2999 160.386 36.2999 160.456 36.2999V36.3732C160.456 36.4465 160.386 36.4465 160.386 36.5198C160.316 36.5198 160.316 36.5198 160.316 36.5198C160.246 36.4465 160.246 36.3732 160.316 36.3732Z" fill="white"/>
</svg>
