<svg width="22" height="14" viewBox="0 0 22 14" fill="none" xmlns="http://www.w3.org/2000/svg">
<g clip-path="url(#clip0_2345_145705)">
<path d="M10.4961 13.0118C10.7891 13.0118 11.082 12.8946 11.2813 12.6719L20.3516 3.37891C20.5508 3.17969 20.668 2.92187 20.668 2.62891C20.668 2.01953 20.2109 1.55078 19.6016 1.55078C19.3086 1.55078 19.0391 1.66797 18.8398 1.85547L9.86328 11.0313H11.1172L2.14062 1.85547C1.95312 1.66797 1.68359 1.55078 1.37891 1.55078C0.769531 1.55078 0.3125 2.01953 0.3125 2.62891C0.3125 2.92187 0.429688 3.17969 0.628906 3.39063L9.69922 12.6719C9.92188 12.8946 10.1914 13.0118 10.4961 13.0118Z" fill="black" fill-opacity="0.85"/>
</g>
<defs>
<clipPath id="clip0_2345_145705">
<rect width="20.707" height="12.4805" fill="white" transform="translate(0.3125 0.53125)"/>
</clipPath>
</defs>
</svg>
