<svg width="598" height="526" viewBox="0 0 598 526" fill="none" xmlns="http://www.w3.org/2000/svg">
<path d="M21.7083 266.815C28.657 266.815 34.3837 262.998 39.4234 258.807L289.612 48.7041C292.38 46.2549 295.679 45.1898 298.555 45.1898C301.377 45.1898 304.41 46.2549 307.178 48.7041L557.632 258.807C562.671 262.998 568.398 266.815 575.347 266.815C588.977 266.815 597.039 257.109 597.039 246.819C597.039 241.087 594.495 235.041 589.027 230.424L328.51 11.7928C318.896 3.93053 308.698 0 298.555 0C288.357 0 277.894 3.93053 268.545 11.7928L8.02722 230.424C2.5607 235.041 0.0136719 241.087 0.0136719 246.819C0.0136719 257.109 8.13 266.815 21.7083 266.815ZM460.967 134.129L523.982 187.271V74.332C523.982 63.3983 516.763 56.4445 505.83 56.4445H479.119C468.45 56.4445 460.967 63.3983 460.967 74.332V134.129ZM129.333 525.619H467.457C503.268 525.619 523.982 505.327 523.982 470.42V193.43L483.562 166.263V460.183C483.562 476.581 474.943 485.41 459.13 485.41H137.925C122.111 485.41 113.283 476.581 113.283 460.183V166.425L73.0725 193.43V470.42C73.0725 505.381 93.7873 525.619 129.333 525.619Z" fill="black"/>
</svg>
