<svg width="297" height="76" viewBox="0 0 297 76" fill="none" xmlns="http://www.w3.org/2000/svg">
<path d="M31.0312 66.375C31.6875 66.375 32.625 65.9375 33.3125 65.5312C50.9062 54.2812 62.0625 41.1875 62.0625 27.875C62.0625 16.8125 54.4688 9 44.6562 9C38.5625 9 33.875 12.375 31.0312 17.5312C28.25 12.4062 23.5 9 17.4062 9C7.59375 9 0 16.8125 0 27.875C0 41.1875 11.1562 54.2812 28.7812 65.5312C29.4375 65.9375 30.375 66.375 31.0312 66.375Z" fill="white"/>
<path d="M75.5938 61V15.9062H82.375V33.5312H82.5312C83.3854 31.6146 84.6771 30.1354 86.4062 29.0938C88.1562 28.0312 90.2604 27.5 92.7188 27.5C95.0729 27.5 97.1146 28.0521 98.8438 29.1562C100.594 30.2396 101.948 31.7708 102.906 33.75C103.885 35.7292 104.375 38.0417 104.375 40.6875V61H97.5938V41.9688C97.5938 39.2396 96.9375 37.1146 95.625 35.5938C94.3125 34.0729 92.4688 33.3125 90.0938 33.3125C88.5521 33.3125 87.1979 33.6771 86.0312 34.4062C84.8854 35.1354 83.9896 36.1458 83.3438 37.4375C82.6979 38.7292 82.375 40.2396 82.375 41.9688V61H75.5938ZM110.875 61V28.125H117.688V33.75H117.812C118.333 31.8125 119.26 30.2917 120.594 29.1875C121.927 28.0625 123.531 27.5 125.406 27.5C125.906 27.5 126.354 27.5312 126.75 27.5938C127.167 27.6354 127.5 27.6875 127.75 27.75V34.0312C127.479 33.9271 127.073 33.8438 126.531 33.7812C125.99 33.6979 125.385 33.6562 124.719 33.6562C123.281 33.6562 122.031 33.9688 120.969 34.5938C119.906 35.1979 119.094 36.0833 118.531 37.25C117.969 38.3958 117.688 39.7812 117.688 41.4062V61H110.875ZM131.938 61V28.125H138.75V33.2188H138.875C139.583 31.4896 140.74 30.1042 142.344 29.0625C143.948 28.0208 145.823 27.5 147.969 27.5C149.469 27.5 150.823 27.75 152.031 28.25C153.26 28.75 154.312 29.4896 155.188 30.4688C156.062 31.4271 156.708 32.5938 157.125 33.9688H157.281C157.844 32.6354 158.625 31.4896 159.625 30.5312C160.646 29.5521 161.823 28.8021 163.156 28.2812C164.51 27.7604 165.969 27.5 167.531 27.5C169.698 27.5 171.583 27.9583 173.188 28.875C174.792 29.7708 176.042 31.0312 176.938 32.6562C177.833 34.2812 178.281 36.1875 178.281 38.375V61H171.469V40.0312C171.469 38.5938 171.219 37.375 170.719 36.375C170.24 35.375 169.531 34.6146 168.594 34.0938C167.677 33.5729 166.542 33.3125 165.188 33.3125C163.854 33.3125 162.677 33.6146 161.656 34.2188C160.656 34.8229 159.865 35.6667 159.281 36.75C158.719 37.8333 158.438 39.0625 158.438 40.4375V61H151.781V39.5312C151.781 38.2604 151.521 37.1667 151 36.25C150.5 35.3125 149.792 34.5938 148.875 34.0938C147.958 33.5729 146.854 33.3125 145.562 33.3125C144.25 33.3125 143.073 33.6354 142.031 34.2812C141.01 34.9062 140.208 35.7708 139.625 36.875C139.042 37.9792 138.75 39.25 138.75 40.6875V61H131.938ZM184.75 61V28.125H191.562V33.0938H191.688C192.562 31.4271 193.844 30.0833 195.531 29.0625C197.219 28.0208 199.302 27.5 201.781 27.5C205.385 27.5 208.177 28.5938 210.156 30.7812C212.135 32.9479 213.125 35.9271 213.125 39.7188V61H206.344V41.0312C206.344 38.5521 205.76 36.6458 204.594 35.3125C203.448 33.9792 201.708 33.3125 199.375 33.3125C197.792 33.3125 196.406 33.6667 195.219 34.375C194.052 35.0833 193.146 36.0729 192.5 37.3438C191.875 38.6146 191.562 40.1146 191.562 41.8438V61H184.75ZM219.906 61V28.125H226.719V61H219.906ZM223.312 23.0625C222.229 23.0625 221.302 22.6875 220.531 21.9375C219.76 21.1667 219.375 20.25 219.375 19.1875C219.375 18.0833 219.76 17.1562 220.531 16.4062C221.302 15.6562 222.229 15.2812 223.312 15.2812C224.417 15.2812 225.344 15.6562 226.094 16.4062C226.865 17.1562 227.25 18.0833 227.25 19.1875C227.25 20.25 226.865 21.1667 226.094 21.9375C225.344 22.6875 224.417 23.0625 223.312 23.0625ZM232.969 61V56.6562L250.531 33.625V33.5H233.094V28.125H258.281V32.7812L241.156 55.5V55.625H258.469V61H232.969ZM275.75 61.6562C272.958 61.6562 270.531 60.9583 268.469 59.5625C266.406 58.1667 264.812 56.1979 263.688 53.6562C262.562 51.0938 262 48.0625 262 44.5625V44.5312C262 41.0312 262.562 38.0104 263.688 35.4688C264.833 32.9271 266.427 30.9688 268.469 29.5938C270.531 28.1979 272.938 27.5 275.688 27.5C277.229 27.5 278.667 27.75 280 28.25C281.333 28.75 282.51 29.4688 283.531 30.4062C284.573 31.3229 285.417 32.4271 286.062 33.7188H286.188V15.9062H293V61H286.188V55.4375H286.062C285.417 56.7292 284.583 57.8333 283.562 58.75C282.562 59.6667 281.406 60.3854 280.094 60.9062C278.781 61.4062 277.333 61.6562 275.75 61.6562ZM277.531 55.8125C279.24 55.8125 280.74 55.3542 282.031 54.4375C283.344 53.5 284.365 52.1875 285.094 50.5C285.844 48.8125 286.219 46.8333 286.219 44.5625V44.5312C286.219 42.2604 285.844 40.2917 285.094 38.625C284.344 36.9375 283.323 35.6354 282.031 34.7188C280.74 33.7812 279.24 33.3125 277.531 33.3125C275.76 33.3125 274.229 33.7708 272.938 34.6875C271.646 35.5833 270.646 36.875 269.938 38.5625C269.25 40.2292 268.906 42.2188 268.906 44.5312V44.5625C268.906 46.875 269.25 48.8854 269.938 50.5938C270.646 52.2812 271.646 53.5729 272.938 54.4688C274.229 55.3646 275.76 55.8125 277.531 55.8125Z" fill="white"/>
</svg>
