<svg width="23" height="22" viewBox="0 0 23 22" fill="none" xmlns="http://www.w3.org/2000/svg">
<g clip-path="url(#clip0_2345_130277)">
<path d="M20.9297 1.70898C19.7344 0.513672 18.0469 0.326172 16.043 0.326172H6.91407C4.94532 0.326172 3.25782 0.513672 2.0625 1.70898C0.867187 2.90429 0.691406 4.58008 0.691406 6.54883V15.6778C0.691406 17.6817 0.867187 19.3574 2.0625 20.5528C3.25782 21.7481 4.94532 21.9356 6.9375 21.9356H16.043C18.0469 21.9356 19.7344 21.7481 20.9297 20.5528C22.125 19.3574 22.3008 17.6817 22.3008 15.6778V6.57226C22.3008 4.56836 22.125 2.90429 20.9297 1.70898ZM20.4141 6.25586V16.0059C20.4141 17.2129 20.2617 18.4668 19.5469 19.17C18.8437 19.8848 17.5781 20.0489 16.3711 20.0489H6.6211C5.41407 20.0489 4.14844 19.8848 3.4336 19.17C2.73047 18.4668 2.57813 17.2129 2.57813 16.0059V6.29101C2.57813 5.04883 2.73047 3.79492 3.4336 3.08008C4.14844 2.37695 5.42579 2.21289 6.65625 2.21289H16.3711C17.5781 2.21289 18.8437 2.37695 19.5469 3.09179C20.2617 3.79492 20.4141 5.04883 20.4141 6.25586Z" fill="white" fill-opacity="0.85"/>
<path d="M7.51172 16.0879C7.76953 16.0879 8.00391 15.9824 8.17969 15.795L11.4961 12.4668L14.8359 15.795C15.0117 15.9707 15.2344 16.0879 15.5039 16.0879C16.0312 16.0879 16.4531 15.666 16.4531 15.1387C16.4531 14.8692 16.3476 14.6582 16.1602 14.4707L12.832 11.1426L16.1719 7.79102C16.3711 7.5918 16.4648 7.39259 16.4648 7.13477C16.4648 6.61915 16.043 6.19727 15.5156 6.19727C15.2695 6.19727 15.0703 6.29102 14.8711 6.49024L11.4961 9.83009L8.15625 6.50196C7.98047 6.31446 7.76953 6.22071 7.51172 6.22071C6.98438 6.22071 6.5625 6.63087 6.5625 7.14649C6.5625 7.4043 6.66797 7.62696 6.85547 7.80274L10.1836 11.1426L6.85547 14.4824C6.66797 14.6582 6.5625 14.8809 6.5625 15.1387C6.5625 15.666 6.98438 16.0879 7.51172 16.0879Z" fill="white" fill-opacity="0.85"/>
</g>
<defs>
<clipPath id="clip0_2345_130277">
<rect width="21.9609" height="21.6211" fill="white" transform="translate(0.691406 0.326172)"/>
</clipPath>
</defs>
</svg>
